<svg xmlns="http://www.w3.org/2000/svg" xmlns:xlink="http://www.w3.org/1999/xlink" width="16" height="16" viewBox="0 0 16 16">
  <defs>
    <clipPath id="clip-path">
      <rect id="Прямоугольник_2899" data-name="Прямоугольник 2899" width="16" height="16" transform="translate(1452 910)" fill="#fff" stroke="#707070" stroke-width="1"/>
    </clipPath>
    <linearGradient id="linear-gradient" x1="0.246" y1="0.198" x2="0.769" y2="0.821" gradientUnits="objectBoundingBox">
      <stop offset="0" stop-color="#ff637b"/>
      <stop offset="1" stop-color="#f90217"/>
    </linearGradient>
    <linearGradient id="linear-gradient-2" x1="0.5" y1="0.353" x2="0.5" y2="0.977" gradientUnits="objectBoundingBox">
      <stop offset="0" stop-color="#f90217" stop-opacity="0"/>
      <stop offset="0.267" stop-color="#e7010f" stop-opacity="0.267"/>
      <stop offset="0.723" stop-color="#ce0004" stop-opacity="0.722"/>
      <stop offset="1" stop-color="#c50000"/>
    </linearGradient>
    <linearGradient id="linear-gradient-3" x1="0.654" y1="0.871" x2="0.339" y2="0.448" xlink:href="#linear-gradient-2"/>
    <linearGradient id="linear-gradient-4" x1="0.219" y1="0.452" x2="0.53" y2="0.716" gradientUnits="objectBoundingBox">
      <stop offset="0" stop-color="#ebeff0"/>
      <stop offset="1" stop-color="#e3e5e4"/>
    </linearGradient>
  </defs>
  <g id="Группа_масок_542" data-name="Группа масок 542" transform="translate(-1452 -910)" clip-path="url(#clip-path)">
    <g id="youtube_1_" data-name="youtube (1)" transform="translate(1452 910)">
      <g id="Сгруппировать_8369" data-name="Сгруппировать 8369">
        <path id="Контур_3997" data-name="Контур 3997" d="M15.274,3.346a2.06,2.06,0,0,0-1.5-1.4,25.5,25.5,0,0,0-11.544,0,2.06,2.06,0,0,0-1.5,1.4,15.274,15.274,0,0,0,0,9.308,2.06,2.06,0,0,0,1.5,1.4,25.5,25.5,0,0,0,11.544,0,2.06,2.06,0,0,0,1.5-1.4,15.274,15.274,0,0,0,0-9.308Z" fill="url(#linear-gradient)"/>
        <path id="Контур_3998" data-name="Контур 3998" d="M.079,9.529a15.825,15.825,0,0,0,.648,3.125,2.061,2.061,0,0,0,1.5,1.4,25.5,25.5,0,0,0,11.544,0,2.06,2.06,0,0,0,1.5-1.4,15.825,15.825,0,0,0,.648-3.125Z" fill="url(#linear-gradient-2)"/>
      </g>
      <path id="Контур_3999" data-name="Контур 3999" d="M13.772,14.049a2.06,2.06,0,0,0,1.5-1.4q.176-.563.309-1.127l-4-4a.836.836,0,0,0-.249-.239L7.07,4.677a.768.768,0,0,0-1.221.647v5.351a.782.782,0,0,0,.3.69l3.3,3.3a25.847,25.847,0,0,0,4.32-.62Z" fill="url(#linear-gradient-3)"/>
      <path id="Контур_4000" data-name="Контур 4000" d="M11.336,7.29,7.07,4.614a.838.838,0,0,0-1.284.71v5.351a.838.838,0,0,0,1.284.71L11.336,8.71A.838.838,0,0,0,11.336,7.29Z" fill="url(#linear-gradient-4)"/>
    </g>
  </g>
</svg>
