<svg xmlns="http://www.w3.org/2000/svg" xmlns:xlink="http://www.w3.org/1999/xlink" width="114" height="114" viewBox="0 0 114 114">
  <defs>
    <linearGradient id="linear-gradient" x1="0.084" y1="0.916" x2="0.916" y2="0.084" gradientUnits="objectBoundingBox">
      <stop offset="0" stop-color="#ffd600"/>
      <stop offset="0.5" stop-color="#ff0100"/>
      <stop offset="1" stop-color="#d800b9"/>
    </linearGradient>
    <filter id="Контур_2260" x="0" y="0" width="114" height="114" filterUnits="userSpaceOnUse">
      <feOffset dy="3" input="SourceAlpha"/>
      <feGaussianBlur stdDeviation="10" result="blur"/>
      <feFlood flood-color="#e5431a" flood-opacity="0.502"/>
      <feComposite operator="in" in2="blur"/>
      <feComposite in="SourceGraphic"/>
    </filter>
    <linearGradient id="linear-gradient-2" x1="0.146" y1="0.854" x2="0.854" y2="0.146" gradientUnits="objectBoundingBox">
      <stop offset="0" stop-color="#ff6400"/>
      <stop offset="0.5" stop-color="#ff0100"/>
      <stop offset="1" stop-color="#fd0056"/>
    </linearGradient>
  </defs>
  <g id="Сгруппировать_8279" data-name="Сгруппировать 8279" transform="translate(30 27)">
    <g id="Сгруппировать_6674" data-name="Сгруппировать 6674">
      <g transform="matrix(1, 0, 0, 1, -30, -27)" filter="url(#Контур_2260)">
        <path id="Контур_2260-2" data-name="Контур 2260" d="M53.838,15.868a19.822,19.822,0,0,0-1.255-6.554,13.233,13.233,0,0,0-3.114-4.782,13.237,13.237,0,0,0-4.782-3.115A19.819,19.819,0,0,0,38.132.163C35.253.031,34.333,0,27,0S18.747.031,15.868.162A19.824,19.824,0,0,0,9.314,1.418,13.233,13.233,0,0,0,4.532,4.532,13.235,13.235,0,0,0,1.417,9.314,19.821,19.821,0,0,0,.163,15.868C.031,18.747,0,19.667,0,27s.031,8.253.163,11.132a19.817,19.817,0,0,0,1.255,6.554,13.231,13.231,0,0,0,3.114,4.782,13.229,13.229,0,0,0,4.782,3.114,19.811,19.811,0,0,0,6.554,1.255c2.88.131,3.8.162,11.132.162s8.253-.031,11.132-.162a19.814,19.814,0,0,0,6.554-1.255,13.8,13.8,0,0,0,7.9-7.9,19.816,19.816,0,0,0,1.255-6.554c.131-2.88.162-3.8.162-11.132s-.031-8.253-.162-11.132Zm-4.86,22.043a14.939,14.939,0,0,1-.929,5.013,8.941,8.941,0,0,1-5.124,5.124,14.939,14.939,0,0,1-5.013.929c-2.846.13-3.7.157-10.91.157s-8.064-.027-10.911-.157a14.944,14.944,0,0,1-5.013-.929,8.367,8.367,0,0,1-3.1-2.02,8.364,8.364,0,0,1-2.02-3.1,14.939,14.939,0,0,1-.929-5.013c-.13-2.847-.157-3.7-.157-10.91s.028-8.063.157-10.911a14.949,14.949,0,0,1,.929-5.013,8.371,8.371,0,0,1,2.02-3.1,8.36,8.36,0,0,1,3.1-2.02,14.936,14.936,0,0,1,5.013-.93c2.847-.13,3.7-.157,10.91-.157h0c7.209,0,8.063.028,10.911.158a14.941,14.941,0,0,1,5.013.929,8.372,8.372,0,0,1,3.1,2.02,8.36,8.36,0,0,1,2.02,3.1,14.925,14.925,0,0,1,.93,5.013c.13,2.847.157,3.7.157,10.91s-.027,8.063-.157,10.911Zm0,0" transform="translate(30 27)" fill="url(#linear-gradient)"/>
      </g>
      <path id="Контур_2261" data-name="Контур 2261" d="M22.621,8.757A13.865,13.865,0,1,0,36.486,22.622,13.865,13.865,0,0,0,22.621,8.757Zm0,22.865a9,9,0,1,1,9-9A9,9,0,0,1,22.621,31.622Zm0,0" transform="translate(4.378 4.743)" fill="url(#linear-gradient-2)"/>
      <path id="Контур_2262" data-name="Контур 2262" d="M31.928,9.472a3.24,3.24,0,1,1-3.24-3.24A3.24,3.24,0,0,1,31.928,9.472Zm0,0" transform="translate(12.724 2.528)" fill="#ff0058"/>
    </g>
  </g>
</svg>
