<svg xmlns="http://www.w3.org/2000/svg" width="114" height="114"><defs><linearGradient id="linear-gradient" x1=".084" y1=".916" x2=".916" y2=".084" gradientUnits="objectBoundingBox"><stop offset="0" stop-color="#ffd600"/><stop offset=".5" stop-color="#ff0100"/><stop offset="1" stop-color="#d800b9"/></linearGradient><linearGradient id="linear-gradient-2" x1=".146" y1=".854" x2=".854" y2=".146" gradientUnits="objectBoundingBox"><stop offset="0" stop-color="#ff6400"/><stop offset=".5" stop-color="#ff0100"/><stop offset="1" stop-color="#fd0056"/></linearGradient><filter id="Контур_2260" x="0" y="0" width="114" height="114" filterUnits="userSpaceOnUse"><feOffset dy="3"/><feGaussianBlur stdDeviation="10" result="blur"/><feFlood flood-color="#e5431a" flood-opacity=".502"/><feComposite operator="in" in2="blur"/><feComposite in="SourceGraphic"/></filter></defs><g id="Сгруппировать_8279" data-name="Сгруппировать 8279" transform="translate(30 27)"><g id="Сгруппировать_6674" data-name="Сгруппировать 6674"><g transform="translate(-30 -27)" filter="url(#Контур_2260)"><path id="Контур_2260-2" data-name="Контур 2260" d="M53.838 15.868a19.822 19.822 0 00-1.255-6.554 13.233 13.233 0 00-3.114-4.782 13.237 13.237 0 00-4.782-3.115A19.819 19.819 0 0038.132.163C35.253.031 34.333 0 27 0s-8.253.031-11.132.162a19.824 19.824 0 00-6.554 1.256 13.233 13.233 0 00-4.782 3.114 13.235 13.235 0 00-3.115 4.782 19.821 19.821 0 00-1.254 6.554C.031 18.747 0 19.667 0 27s.031 8.253.163 11.132a19.817 19.817 0 001.255 6.554 13.231 13.231 0 003.114 4.782 13.229 13.229 0 004.782 3.114 19.811 19.811 0 006.554 1.255c2.88.131 3.8.162 11.132.162s8.253-.031 11.132-.162a19.814 19.814 0 006.554-1.255 13.8 13.8 0 007.9-7.9 19.816 19.816 0 001.255-6.554c.131-2.88.162-3.8.162-11.132s-.031-8.253-.162-11.132zm-4.86 22.043a14.939 14.939 0 01-.929 5.013 8.941 8.941 0 01-5.124 5.124 14.939 14.939 0 01-5.013.929c-2.846.13-3.7.157-10.91.157s-8.064-.027-10.911-.157a14.944 14.944 0 01-5.013-.929 8.367 8.367 0 01-3.1-2.02 8.364 8.364 0 01-2.02-3.1 14.939 14.939 0 01-.929-5.013c-.13-2.847-.157-3.7-.157-10.91s.028-8.063.157-10.911a14.949 14.949 0 01.929-5.013 8.371 8.371 0 012.02-3.1 8.36 8.36 0 013.1-2.02 14.936 14.936 0 015.013-.93c2.847-.13 3.7-.157 10.91-.157 7.209 0 8.063.028 10.911.158a14.941 14.941 0 015.013.929 8.372 8.372 0 013.1 2.02 8.36 8.36 0 012.02 3.1 14.925 14.925 0 01.93 5.013c.13 2.847.157 3.7.157 10.91s-.027 8.063-.157 10.911zm0 0" transform="translate(30 27)" fill="url(#linear-gradient)"/></g><path id="Контур_2261" data-name="Контур 2261" d="M22.621 8.757a13.865 13.865 0 1013.865 13.865A13.865 13.865 0 0022.621 8.757zm0 22.865a9 9 0 119-9 9 9 0 01-9 9zm0 0" transform="translate(4.378 4.743)" fill="url(#linear-gradient-2)"/><path id="Контур_2262" data-name="Контур 2262" d="M31.928 9.472a3.24 3.24 0 11-3.24-3.24 3.24 3.24 0 013.24 3.24zm0 0" transform="translate(12.724 2.528)" fill="#ff0058"/></g></g></svg>