<svg width="55" height="54" fill="none" xmlns="http://www.w3.org/2000/svg"><path d="M53.838 15.868a19.82 19.82 0 00-1.255-6.554 13.234 13.234 0 00-3.114-4.782 13.237 13.237 0 00-4.782-3.115A19.819 19.819 0 0038.132.163C35.253.031 34.333 0 27 0s-8.253.031-11.132.162c-2.24.045-4.456.47-6.554 1.256a13.233 13.233 0 00-4.782 3.114 13.235 13.235 0 00-3.115 4.782 19.821 19.821 0 00-1.254 6.554C.031 18.747 0 19.667 0 27s.031 8.253.163 11.132a19.84 19.84 0 001.255 6.554 13.231 13.231 0 003.114 4.782 13.229 13.229 0 004.782 3.114 19.81 19.81 0 006.554 1.255c2.88.131 3.8.162 11.132.162s8.253-.031 11.132-.162a19.84 19.84 0 006.554-1.255 13.8 13.8 0 007.9-7.9 19.815 19.815 0 001.255-6.554c.131-2.88.162-3.8.162-11.132s-.031-8.253-.162-11.132l-.003.004zm-4.86 22.043a14.939 14.939 0 01-.929 5.013 8.942 8.942 0 01-5.124 5.124 14.939 14.939 0 01-5.013.929c-2.846.13-3.7.157-10.91.157s-8.064-.027-10.911-.157a14.944 14.944 0 01-5.013-.929 8.368 8.368 0 01-3.1-2.02 8.364 8.364 0 01-2.02-3.1 14.939 14.939 0 01-.929-5.013c-.13-2.847-.157-3.7-.157-10.91s.028-8.063.157-10.911c.02-1.712.335-3.408.929-5.013a8.371 8.371 0 012.02-3.1 8.36 8.36 0 013.1-2.02 14.936 14.936 0 015.013-.93c2.847-.13 3.7-.157 10.91-.157 7.209 0 8.063.028 10.911.158a14.94 14.94 0 015.013.929 8.371 8.371 0 013.1 2.02 8.36 8.36 0 012.02 3.1c.595 1.605.91 3.301.93 5.013.13 2.847.157 3.7.157 10.91s-.027 8.063-.157 10.911l.003-.004z" fill="url(#paint0_linear_19_281)"/><path d="M26.999 13.5a13.865 13.865 0 100 27.73 13.865 13.865 0 000-27.73zm0 22.865a9 9 0 110-17.999 9 9 0 010 17.999z" fill="url(#paint1_linear_19_281)"/><path d="M44.652 12a3.24 3.24 0 11-6.48 0 3.24 3.24 0 016.48 0z" fill="#FF0058"/><defs><linearGradient id="paint0_linear_19_281" x1="4.536" y1="49.463" x2="49.463" y2="4.533" gradientUnits="userSpaceOnUse"><stop stop-color="#FFD600"/><stop offset=".5" stop-color="#FF0100"/><stop offset="1" stop-color="#D800B9"/></linearGradient><linearGradient id="paint1_linear_19_281" x1="17.182" y1="37.181" x2="36.815" y2="17.549" gradientUnits="userSpaceOnUse"><stop stop-color="#FF6400"/><stop offset=".5" stop-color="#FF0100"/><stop offset="1" stop-color="#FD0056"/></linearGradient></defs></svg>