<svg xmlns="http://www.w3.org/2000/svg" width="118" height="45.294"><defs><linearGradient id="a" x2=".803" y2="1" gradientUnits="objectBoundingBox"><stop offset="0" stop-color="#29c6ff"/><stop offset="1" stop-color="#5138ee"/></linearGradient></defs><path d="M16.051 20.906a.428.428 0 01.814 0l1.186 3.651a.434.434 0 00.407.3h3.849a.43.43 0 01.25.775l-3.113 2.259a.433.433 0 00-.158.473l1.182 3.665a.425.425 0 01-.657.473l-3.1-2.259a.433.433 0 00-.5 0l-3.114 2.262a.433.433 0 01-.657-.473l1.183-3.667a.433.433 0 00-.144-.473l-3.114-2.258a.433.433 0 01.263-.788h3.836a.394.394 0 00.394-.289l1.182-3.652z" fill="#fff"/><path d="M37.964 45.207l-12.992-9.563a.436.436 0 01-.145-.2l-2.233-6.331a.442.442 0 01.171-.512l8.67-5.622a.43.43 0 00-.263-.788l-10.3.46a.433.433 0 01-.434-.3l-2.023-6.226a.431.431 0 010-.263L23.383.3a.428.428 0 01.817 0l5.215 16.262a.437.437 0 00.42.3h17.376a.434.434 0 01.249.788L33.444 27.763a.434.434 0 00-.158.473l5.333 16.5a.426.426 0 01-.406.56.409.409 0 01-.249-.089zm-28.886-.88l2.443-7.579a.41.41 0 01.158-.21l5.255-3.744a.433.433 0 01.5 0l4.112 2.89v.016a.433.433 0 01.013.7L9.734 44.8a.426.426 0 01-.657-.473zm-2.5-21.963l-6.4-4.729a.434.434 0 01.263-.788h14.522a.437.437 0 01.407.578l-1.642 4.729a.434.434 0 01-.407.289H6.832a.433.433 0 01-.25-.079z" fill="url(#a)"/><path d="M112.102 35.999a10.6 10.6 0 01-3.586-.6 8.079 8.079 0 01-2.942-1.813l1.34-2.43a9.983 9.983 0 002.588 1.563 6.736 6.736 0 002.47.5 3.291 3.291 0 001.734-.394 1.265 1.265 0 00.67-1.169 1.061 1.061 0 00-.814-1.077c-.539-.21-1.3-.46-2.272-.762a19.572 19.572 0 01-2.724-1.029 4.569 4.569 0 01-1.655-1.287 3.3 3.3 0 01-.525-1.944 4.151 4.151 0 011.629-3.442 6.778 6.778 0 014.309-1.274 8.858 8.858 0 012.969.5 6.962 6.962 0 012.561 1.563l-1.524 2.364a6.883 6.883 0 00-4.177-1.668 3.621 3.621 0 00-1.589.328 1.208 1.208 0 00-.67 1.182 1.131 1.131 0 00.644 1.1 12.826 12.826 0 002.01.736c1.169.355 2.141.7 2.942 1.025a4.385 4.385 0 011.852 1.287 3.207 3.207 0 01.657 2.115 4.1 4.1 0 01-1.6 3.415 6.976 6.976 0 01-4.3 1.208zm-10.443-10.64a6.744 6.744 0 013.048-.657v-3.415a6.109 6.109 0 00-.749-.026 4.992 4.992 0 00-2.575.946 6.358 6.358 0 00-1.97 2.364v-3.1h-3.442v3.271c.6-.092 1.878 0 2.1 1.051a2.207 2.207 0 01-2.1 2.68v7.592h3.757v-8.84a3.941 3.941 0 011.931-1.866zm-32.078-1.353V32.4l3.757-1.265v-7.129h3.087v-2.877h-3.087v-4.728h-3.757v4.729H67.65v2.877zm6.085 11.652a16.16 16.16 0 001.878-.657l-.751-2.966-7.041 1.576a2.094 2.094 0 00.342.88 3 3 0 001.405 1.144 4.971 4.971 0 001.9.368 7.589 7.589 0 002.267-.345zM63.119 20.473a4.254 4.254 0 011.064.722l1.708-3.126a14.844 14.844 0 00-3.074-1.524 11.021 11.021 0 00-3.875-.67 9.1 9.1 0 00-3.678.722 5.911 5.911 0 00-2.627 2.1 5.793 5.793 0 00-.946 3.389 4.68 4.68 0 00.617 2.535 4.735 4.735 0 001.839 1.655 18.01 18.01 0 003.179 1.169c1.025.289 1.918.565 2.68.8a5.71 5.71 0 011.839.893 1.728 1.728 0 01.631 1.392c0 1.366-1.051 2.036-3.192 2.036a8.932 8.932 0 01-2.22-.276 13.859 13.859 0 01-3.586-1.484 6.017 6.017 0 01-.893-.657l-1.708 3.31a13.72 13.72 0 003.889 1.897 10.091 10.091 0 002.561.42l8.315-2.259a5.123 5.123 0 00.959-3.363 4.842 4.842 0 00-.788-2.9 5.228 5.228 0 00-2.207-1.786 20.425 20.425 0 00-3.4-1.182q-1.5-.374-2.522-.709a4.072 4.072 0 01-1.511-.814 1.681 1.681 0 01-.5-1.287c0-1.484 1.051-2.233 3.153-2.233a9.694 9.694 0 014.282 1.222zM59.23 36.025a10.841 10.841 0 003.639-.578 5.935 5.935 0 001.55-.788l-6.647 1.287 1.445.079zm20.216-7.054a5.1 5.1 0 012.233-1.668 8.61 8.61 0 013.284-.591 10.336 10.336 0 011.892.171c.447.026.867.105 1.353.118l.079-.026.21-.46a2.672 2.672 0 00-.841-2.141 3.451 3.451 0 00-2.43-.749 6.419 6.419 0 00-2.3.407 12.027 12.027 0 00-2.3 1.235l-1.208-2.456a10.9 10.9 0 016.2-1.892 7 7 0 014.86 1.563c1.208.959 1.379 1.55 1.642 3.389l-3.836 1.1v.026h-.079l-9.024 2.6.263-.631zm13 3.481a1.381 1.381 0 01-.2-.854l-.013-2.338-3.862.788.131.88a1.843 1.843 0 01-.7 1.274 4.427 4.427 0 01-2.969 1.117 2.664 2.664 0 01-1.931-.657 2.075 2.075 0 01-.683-1.511l-3.547.631a3.357 3.357 0 00.644 2.036 4.9 4.9 0 004.44 2.233 6.719 6.719 0 002.89-.644 6.542 6.542 0 002.417-1.918l.079.749a2.022 2.022 0 00.709 1.235 2.6 2.6 0 001.708.5c.184 0 .407-.026.67-.053a6.307 6.307 0 00.92-.144v-3.034a1.042 1.042 0 01-.7-.289z" fill="#fff"/></svg>