<svg xmlns="http://www.w3.org/2000/svg" xmlns:xlink="http://www.w3.org/1999/xlink" width="118" height="45.294" viewBox="0 0 118 45.294"><defs><linearGradient id="a" x2="0.803" y2="1" gradientUnits="objectBoundingBox"><stop offset="0" stop-color="#29c6ff"/><stop offset="1" stop-color="#5138ee"/></linearGradient></defs><g transform="translate(-238.106 -73.992)"><path d="M14.4,16.741a.428.428,0,0,1,.814,0L16.4,20.392a.434.434,0,0,0,.407.3h3.849a.43.43,0,0,1,.25.775l-3.113,2.259a.433.433,0,0,0-.158.473l1.182,3.665a.425.425,0,0,1-.657.473l-3.1-2.259a.433.433,0,0,0-.5,0L11.446,28.34a.433.433,0,0,1-.657-.473L11.972,24.2a.433.433,0,0,0-.144-.473L8.714,21.469a.433.433,0,0,1,.263-.788h3.836a.394.394,0,0,0,.394-.289l1.182-3.652Z" transform="translate(239.757 78.157)" fill="#fff"/><path d="M37.964,45.207,24.972,35.644a.436.436,0,0,1-.145-.2l-2.233-6.331a.442.442,0,0,1,.171-.512l8.67-5.622a.43.43,0,0,0-.263-.788l-10.3.46a.433.433,0,0,1-.434-.3l-2.023-6.226a.431.431,0,0,1,0-.263L23.383.3A.428.428,0,0,1,24.2.3l5.215,16.262a.437.437,0,0,0,.42.3H47.211a.434.434,0,0,1,.249.788L33.444,27.763a.434.434,0,0,0-.158.473l5.333,16.5a.426.426,0,0,1-.406.56A.409.409,0,0,1,37.964,45.207Zm-28.886-.88,2.443-7.579a.41.41,0,0,1,.158-.21l5.255-3.744a.433.433,0,0,1,.5,0l4.112,2.89V35.7a.433.433,0,0,1,.013.7L9.734,44.8a.426.426,0,0,1-.657-.473Zm-2.5-21.963-6.4-4.729a.434.434,0,0,1,.263-.788H14.963a.437.437,0,0,1,.407.578l-1.642,4.729a.434.434,0,0,1-.407.289H6.832A.433.433,0,0,1,6.582,22.364Z" transform="translate(238.106 73.992)" fill="url(#a)"/><path d="M100.736,32.964a10.6,10.6,0,0,1-3.586-.6,8.079,8.079,0,0,1-2.942-1.813l1.34-2.43a9.983,9.983,0,0,0,2.588,1.563,6.736,6.736,0,0,0,2.47.5,3.291,3.291,0,0,0,1.734-.394,1.265,1.265,0,0,0,.67-1.169,1.061,1.061,0,0,0-.814-1.077c-.539-.21-1.3-.46-2.272-.762A19.572,19.572,0,0,1,97.2,25.753a4.569,4.569,0,0,1-1.655-1.287,3.3,3.3,0,0,1-.525-1.944,4.151,4.151,0,0,1,1.629-3.442,6.778,6.778,0,0,1,4.309-1.274,8.858,8.858,0,0,1,2.969.5,6.962,6.962,0,0,1,2.561,1.563l-1.524,2.364a6.883,6.883,0,0,0-4.177-1.668,3.621,3.621,0,0,0-1.589.328,1.208,1.208,0,0,0-.67,1.182,1.131,1.131,0,0,0,.644,1.1,12.826,12.826,0,0,0,2.01.736c1.169.355,2.141.7,2.942,1.025a4.385,4.385,0,0,1,1.852,1.287,3.207,3.207,0,0,1,.657,2.115,4.1,4.1,0,0,1-1.6,3.415,6.976,6.976,0,0,1-4.3,1.208ZM90.293,22.324a6.744,6.744,0,0,1,3.048-.657V18.252a6.109,6.109,0,0,0-.749-.026,4.992,4.992,0,0,0-2.575.946,6.358,6.358,0,0,0-1.97,2.364v-3.1H84.605v3.271c.6-.092,1.878,0,2.1,1.051a2.207,2.207,0,0,1-2.1,2.68V33.03h3.757v-8.84A3.941,3.941,0,0,1,90.293,22.324ZM58.215,20.971v8.394L61.972,28.1V20.971h3.087V18.094H61.972V13.366H58.215v4.729H56.284v2.877ZM64.3,32.623a16.16,16.16,0,0,0,1.878-.657L65.427,29l-7.041,1.576a2.094,2.094,0,0,0,.342.88A3,3,0,0,0,60.133,32.6a4.971,4.971,0,0,0,1.9.368A7.589,7.589,0,0,0,64.3,32.623ZM51.753,17.438a4.254,4.254,0,0,1,1.064.722l1.708-3.126a14.844,14.844,0,0,0-3.074-1.524,11.021,11.021,0,0,0-3.875-.67,9.1,9.1,0,0,0-3.678.722,5.911,5.911,0,0,0-2.627,2.1,5.793,5.793,0,0,0-.946,3.389,4.68,4.68,0,0,0,.617,2.535,4.735,4.735,0,0,0,1.839,1.655,18.01,18.01,0,0,0,3.179,1.169c1.025.289,1.918.565,2.68.8a5.71,5.71,0,0,1,1.839.893,1.728,1.728,0,0,1,.631,1.392c0,1.366-1.051,2.036-3.192,2.036a8.932,8.932,0,0,1-2.22-.276,13.859,13.859,0,0,1-3.586-1.484,6.017,6.017,0,0,1-.893-.657l-1.708,3.31A13.72,13.72,0,0,0,43.4,32.321a10.091,10.091,0,0,0,2.561.42l8.315-2.259a5.123,5.123,0,0,0,.959-3.363,4.842,4.842,0,0,0-.788-2.9,5.228,5.228,0,0,0-2.207-1.786,20.425,20.425,0,0,0-3.4-1.182q-1.5-.374-2.522-.709a4.072,4.072,0,0,1-1.511-.814,1.681,1.681,0,0,1-.5-1.287c0-1.484,1.051-2.233,3.153-2.233a9.694,9.694,0,0,1,4.282,1.222ZM47.864,32.99a10.841,10.841,0,0,0,3.639-.578,5.935,5.935,0,0,0,1.55-.788l-6.647,1.287,1.445.079Zm20.216-7.054a5.1,5.1,0,0,1,2.233-1.668,8.61,8.61,0,0,1,3.284-.591,10.336,10.336,0,0,1,1.892.171c.447.026.867.105,1.353.118l.079-.026.21-.46a2.672,2.672,0,0,0-.841-2.141,3.451,3.451,0,0,0-2.43-.749,6.419,6.419,0,0,0-2.3.407,12.027,12.027,0,0,0-2.3,1.235l-1.208-2.456a10.9,10.9,0,0,1,6.2-1.892,7,7,0,0,1,4.86,1.563c1.208.959,1.379,1.55,1.642,3.389l-3.836,1.1v.026h-.079l-9.024,2.6.263-.631Zm13,3.481a1.381,1.381,0,0,1-.2-.854l-.013-2.338-3.862.788.131.88a1.843,1.843,0,0,1-.7,1.274,4.427,4.427,0,0,1-2.969,1.117,2.664,2.664,0,0,1-1.931-.657,2.075,2.075,0,0,1-.683-1.511l-3.547.631a3.357,3.357,0,0,0,.644,2.036,4.9,4.9,0,0,0,4.44,2.233,6.719,6.719,0,0,0,2.89-.644,6.542,6.542,0,0,0,2.417-1.918l.079.749a2.022,2.022,0,0,0,.709,1.235,2.6,2.6,0,0,0,1.708.5c.184,0,.407-.026.67-.053a6.307,6.307,0,0,0,.92-.144V29.707a1.042,1.042,0,0,1-.7-.289Z" transform="translate(249.472 77.027)" fill="#fff"/></g></svg>