<svg xmlns="http://www.w3.org/2000/svg" width="83.367" height="32"><g id="Сгруппировать_5618" data-name="Сгруппировать 5618" transform="translate(-238.106 -73.992)" opacity=".7" fill="#fff"><path id="Контур_1" data-name="Контур 1" d="M12.678 16.654a.3.3 0 01.575 0l.835 2.58a.306.306 0 00.288.213H17.1a.3.3 0 01.176.548l-2.2 1.6a.306.306 0 00-.111.334l.835 2.589a.3.3 0 01-.464.334l-2.19-1.6a.306.306 0 00-.353 0l-2.2 1.6a.306.306 0 01-.464-.334l.835-2.589a.306.306 0 00-.1-.334l-2.2-1.6a.306.306 0 01.186-.557h2.71a.278.278 0 00.278-.2l.835-2.58z" transform="translate(236.769 72.108)"/><path id="Объединение_7" data-name="Объединение 7" d="M26.821 31.939l-9.178-6.756a.308.308 0 01-.1-.139l-1.58-4.474a.313.313 0 01.121-.362l6.125-3.972a.3.3 0 00-.186-.557L14.747 16a.306.306 0 01-.306-.214l-1.429-4.4a.3.3 0 010-.186L16.52.2a.3.3 0 01.575 0l3.684 11.5a.309.309 0 00.3.213h12.275a.307.307 0 01.176.557l-9.9 7.146a.307.307 0 00-.111.334l3.766 11.65A.3.3 0 0127 32a.289.289 0 01-.179-.061zm-20.408-.622l1.726-5.355a.289.289 0 01.111-.148l3.712-2.645a.306.306 0 01.352 0l2.9 2.042v.009a.306.306 0 01.009.492l-8.352 5.94a.3.3 0 01-.464-.334zM4.65 15.8L.13 12.459a.306.306 0 01.186-.559h10.255a.308.308 0 01.288.408L9.7 15.652a.307.307 0 01-.288.2H4.827a.306.306 0 01-.177-.052z" transform="translate(238.106 73.992)"/><path id="Контур_4" data-name="Контур 4" d="M82.766 27.058a7.488 7.488 0 01-2.534-.427 5.708 5.708 0 01-2.079-1.281l.947-1.717a7.053 7.053 0 001.828 1.1 4.759 4.759 0 001.745.353 2.325 2.325 0 001.225-.278.894.894 0 00.473-.826.75.75 0 00-.575-.761c-.38-.148-.919-.325-1.606-.538a13.827 13.827 0 01-1.921-.724 3.228 3.228 0 01-1.169-.909 2.331 2.331 0 01-.371-1.374 2.933 2.933 0 011.151-2.431 4.789 4.789 0 013.044-.9 6.258 6.258 0 012.1.353 4.919 4.919 0 011.81 1.1l-1.077 1.67A4.863 4.863 0 0082.8 18.3a2.558 2.558 0 00-1.123.232.853.853 0 00-.473.835.8.8 0 00.455.78 9.062 9.062 0 001.42.52c.826.251 1.513.492 2.079.724a3.1 3.1 0 011.309.909 2.265 2.265 0 01.464 1.494A2.9 2.9 0 0185.8 26.2a4.929 4.929 0 01-3.035.854zm-7.378-7.518a4.765 4.765 0 012.153-.464v-2.412a4.316 4.316 0 00-.529-.019 3.527 3.527 0 00-1.819.668 4.492 4.492 0 00-1.392 1.67v-2.19H71.37V19.1c.427-.065 1.327 0 1.485.742a1.559 1.559 0 01-1.485 1.898v5.36h2.654v-6.242a2.784 2.784 0 011.364-1.318zm-22.663-.956v5.93l2.654-.891v-5.038h2.181v-2.033h-2.18v-3.341h-2.655v3.341h-1.364v2.032zm4.3 8.232a11.416 11.416 0 001.327-.464l-.529-2.1-4.974 1.114a1.48 1.48 0 00.241.622 2.119 2.119 0 00.993.807 3.512 3.512 0 001.346.26 5.362 5.362 0 001.593-.239zm-8.866-10.728a3.005 3.005 0 01.752.51l1.206-2.209a10.487 10.487 0 00-2.172-1.077 7.786 7.786 0 00-2.738-.473 6.428 6.428 0 00-2.6.51 4.176 4.176 0 00-1.856 1.485 4.093 4.093 0 00-.668 2.394 3.307 3.307 0 00.436 1.791 3.345 3.345 0 001.3 1.169 12.724 12.724 0 002.246.826c.724.2 1.355.4 1.893.566a4.034 4.034 0 011.3.631 1.221 1.221 0 01.445.984c0 .965-.742 1.438-2.255 1.438a6.311 6.311 0 01-1.568-.195 9.791 9.791 0 01-2.534-1.049 4.251 4.251 0 01-.631-.464l-1.205 2.342a9.693 9.693 0 002.747 1.333 7.129 7.129 0 001.81.3l5.875-1.6a3.619 3.619 0 00.677-2.376 3.421 3.421 0 00-.557-2.051 3.694 3.694 0 00-1.562-1.258 14.43 14.43 0 00-2.4-.835q-1.058-.264-1.782-.5a2.877 2.877 0 01-1.068-.58 1.188 1.188 0 01-.353-.909c0-1.049.742-1.578 2.227-1.578a6.849 6.849 0 013.025.863zm-2.747 10.988a7.659 7.659 0 002.571-.408 4.193 4.193 0 001.1-.557l-4.7.909 1.021.056zm14.283-4.984a3.6 3.6 0 011.578-1.179 6.083 6.083 0 012.32-.418 7.3 7.3 0 011.336.121c.316.019.613.074.956.084l.056-.019.148-.325a1.888 1.888 0 00-.594-1.513 2.438 2.438 0 00-1.717-.529 4.535 4.535 0 00-1.624.288 8.5 8.5 0 00-1.624.872l-.854-1.735a7.7 7.7 0 014.38-1.336 4.942 4.942 0 013.434 1.1c.854.677.974 1.1 1.16 2.394l-2.71.78v.023h-.056l-6.376 1.838.186-.445zm9.188 2.459a.975.975 0 01-.139-.6l-.01-1.651-2.728.557.093.622a1.3 1.3 0 01-.492.9 3.127 3.127 0 01-2.1.789 1.882 1.882 0 01-1.364-.464 1.466 1.466 0 01-.483-1.067l-2.506.445a2.372 2.372 0 00.455 1.438 3.462 3.462 0 003.137 1.578 4.747 4.747 0 002.042-.455 4.622 4.622 0 001.712-1.358l.056.529a1.428 1.428 0 00.5.872 1.834 1.834 0 001.206.353c.13 0 .288-.019.473-.037a4.456 4.456 0 00.65-.1v-2.146a.736.736 0 01-.492-.2z" transform="translate(234.54 72.368)"/></g></svg>