<svg xmlns="http://www.w3.org/2000/svg" width="83.367" height="32" viewBox="0 0 83.367 32">
  <g id="Сгруппировать_5618" data-name="Сгруппировать 5618" transform="translate(-238.106 -73.992)" opacity="0.7">
    <path id="Контур_1" data-name="Контур 1" d="M12.678,16.654a.3.3,0,0,1,.575,0l.835,2.58a.306.306,0,0,0,.288.213H17.1a.3.3,0,0,1,.176.548l-2.2,1.6a.306.306,0,0,0-.111.334l.835,2.589a.3.3,0,0,1-.464.334l-2.19-1.6a.306.306,0,0,0-.353,0l-2.2,1.6a.306.306,0,0,1-.464-.334l.835-2.589a.306.306,0,0,0-.1-.334l-2.2-1.6a.306.306,0,0,1,.186-.557h2.71a.278.278,0,0,0,.278-.2l.835-2.58Z" transform="translate(236.769 72.108)" fill="#fff"/>
    <path id="Объединение_7" data-name="Объединение 7" d="M26.821,31.939l-9.178-6.756a.308.308,0,0,1-.1-.139L15.963,20.57a.313.313,0,0,1,.121-.362l6.125-3.972a.3.3,0,0,0-.186-.557L14.747,16a.306.306,0,0,1-.306-.214l-1.429-4.4a.3.3,0,0,1,0-.186l3.508-11a.3.3,0,0,1,.575,0L20.779,11.7a.309.309,0,0,0,.3.213H33.354a.307.307,0,0,1,.176.557l-9.9,7.146a.307.307,0,0,0-.111.334L27.285,31.6A.3.3,0,0,1,27,32,.289.289,0,0,1,26.821,31.939ZM6.413,31.317l1.726-5.355a.289.289,0,0,1,.111-.148l3.712-2.645a.306.306,0,0,1,.352,0l2.9,2.042v.009a.306.306,0,0,1,.009.492l-8.352,5.94a.3.3,0,0,1-.464-.334ZM4.65,15.8.13,12.459A.306.306,0,0,1,.316,11.9H10.571a.308.308,0,0,1,.288.408L9.7,15.652a.307.307,0,0,1-.288.2H4.827A.306.306,0,0,1,4.65,15.8Z" transform="translate(238.106 73.992)" fill="#fff"/>
    <path id="Контур_4" data-name="Контур 4" d="M82.766,27.058a7.488,7.488,0,0,1-2.534-.427,5.708,5.708,0,0,1-2.079-1.281l.947-1.717a7.053,7.053,0,0,0,1.828,1.1,4.759,4.759,0,0,0,1.745.353,2.325,2.325,0,0,0,1.225-.278.894.894,0,0,0,.473-.826.75.75,0,0,0-.575-.761c-.38-.148-.919-.325-1.606-.538a13.827,13.827,0,0,1-1.921-.724,3.228,3.228,0,0,1-1.169-.909,2.331,2.331,0,0,1-.371-1.374,2.933,2.933,0,0,1,1.151-2.431,4.789,4.789,0,0,1,3.044-.9,6.258,6.258,0,0,1,2.1.353,4.919,4.919,0,0,1,1.81,1.1l-1.077,1.67A4.863,4.863,0,0,0,82.8,18.3a2.558,2.558,0,0,0-1.123.232.853.853,0,0,0-.473.835.8.8,0,0,0,.455.78,9.062,9.062,0,0,0,1.42.52c.826.251,1.513.492,2.079.724a3.1,3.1,0,0,1,1.309.909,2.265,2.265,0,0,1,.464,1.494A2.9,2.9,0,0,1,85.8,26.2a4.929,4.929,0,0,1-3.035.854ZM75.388,19.54a4.765,4.765,0,0,1,2.153-.464V16.664a4.316,4.316,0,0,0-.529-.019,3.527,3.527,0,0,0-1.819.668,4.492,4.492,0,0,0-1.392,1.67v-2.19H71.37V19.1c.427-.065,1.327,0,1.485.742A1.559,1.559,0,0,1,71.37,21.74V27.1h2.654V20.858A2.784,2.784,0,0,1,75.388,19.54Zm-22.663-.956v5.93l2.654-.891V18.585H57.56V16.552H55.38V13.211H52.725v3.341H51.361v2.032Zm4.3,8.232a11.416,11.416,0,0,0,1.327-.464l-.529-2.1-4.974,1.114a1.48,1.48,0,0,0,.241.622,2.119,2.119,0,0,0,.993.807,3.512,3.512,0,0,0,1.346.26A5.362,5.362,0,0,0,57.022,26.816ZM48.159,16.088a3.005,3.005,0,0,1,.752.51l1.206-2.209a10.487,10.487,0,0,0-2.172-1.077,7.786,7.786,0,0,0-2.738-.473,6.428,6.428,0,0,0-2.6.51,4.176,4.176,0,0,0-1.856,1.485,4.093,4.093,0,0,0-.668,2.394,3.307,3.307,0,0,0,.436,1.791,3.345,3.345,0,0,0,1.3,1.169,12.724,12.724,0,0,0,2.246.826c.724.2,1.355.4,1.893.566a4.034,4.034,0,0,1,1.3.631,1.221,1.221,0,0,1,.445.984c0,.965-.742,1.438-2.255,1.438a6.311,6.311,0,0,1-1.568-.195,9.791,9.791,0,0,1-2.534-1.049,4.251,4.251,0,0,1-.631-.464L39.51,25.267A9.693,9.693,0,0,0,42.257,26.6a7.129,7.129,0,0,0,1.81.3l5.875-1.6a3.619,3.619,0,0,0,.677-2.376,3.421,3.421,0,0,0-.557-2.051A3.694,3.694,0,0,0,48.5,19.615a14.43,14.43,0,0,0-2.4-.835q-1.058-.264-1.782-.5A2.877,2.877,0,0,1,43.25,17.7a1.188,1.188,0,0,1-.353-.909c0-1.049.742-1.578,2.227-1.578a6.849,6.849,0,0,1,3.025.863ZM45.412,27.076a7.659,7.659,0,0,0,2.571-.408,4.193,4.193,0,0,0,1.1-.557l-4.7.909,1.021.056Zm14.283-4.984a3.6,3.6,0,0,1,1.578-1.179,6.083,6.083,0,0,1,2.32-.418,7.3,7.3,0,0,1,1.336.121c.316.019.613.074.956.084l.056-.019.148-.325a1.888,1.888,0,0,0-.594-1.513,2.438,2.438,0,0,0-1.717-.529,4.535,4.535,0,0,0-1.624.288,8.5,8.5,0,0,0-1.624.872l-.854-1.735a7.7,7.7,0,0,1,4.38-1.336,4.942,4.942,0,0,1,3.434,1.1c.854.677.974,1.1,1.16,2.394l-2.71.78V20.7h-.056l-6.376,1.838.186-.445Zm9.188,2.459a.975.975,0,0,1-.139-.6L68.734,22.3l-2.728.557.093.622a1.3,1.3,0,0,1-.492.9,3.127,3.127,0,0,1-2.1.789,1.882,1.882,0,0,1-1.364-.464,1.466,1.466,0,0,1-.483-1.067l-2.506.445a2.372,2.372,0,0,0,.455,1.438,3.462,3.462,0,0,0,3.137,1.578,4.747,4.747,0,0,0,2.042-.455A4.622,4.622,0,0,0,66.5,25.285l.056.529a1.428,1.428,0,0,0,.5.872,1.834,1.834,0,0,0,1.206.353c.13,0,.288-.019.473-.037a4.456,4.456,0,0,0,.65-.1V24.756a.736.736,0,0,1-.492-.2Z" transform="translate(234.54 72.368)" fill="#fff"/>
  </g>
</svg>
