<svg xmlns="http://www.w3.org/2000/svg" xmlns:xlink="http://www.w3.org/1999/xlink" width="2311.582" height="924.435" viewBox="0 0 2311.582 924.435">
  <defs>
    <linearGradient id="linear-gradient" x1="0.5" x2="0.5" y2="1" gradientUnits="objectBoundingBox">
      <stop offset="0" stop-color="#fff"/>
      <stop offset="1" stop-color="#e097ff"/>
    </linearGradient>
    <linearGradient id="linear-gradient-3" x1="0.734" y1="0.072" x2="0.325" y2="1" gradientUnits="objectBoundingBox">
      <stop offset="0" stop-color="#fff"/>
      <stop offset="0.663" stop-color="#ff8bb2"/>
      <stop offset="1" stop-color="#c844ff"/>
    </linearGradient>
    <linearGradient id="linear-gradient-5" x1="0.5" x2="0.5" y2="1" gradientUnits="objectBoundingBox">
      <stop offset="0" stop-color="#fff"/>
      <stop offset="1" stop-color="#8cff84"/>
    </linearGradient>
  </defs>
  <g id="Сгруппировать_8514" data-name="Сгруппировать 8514" transform="translate(142.06 -5271.478)">
    <g id="Сгруппировать_8314" data-name="Сгруппировать 8314" transform="translate(-401.625 -4470.813)" opacity="0.3">
      <g id="Эллипс_688" data-name="Эллипс 688" transform="matrix(0.985, 0.174, -0.174, 0.985, 353.622, 9742.29)" fill="rgba(255,255,255,0)" stroke="rgba(255,255,255,0.25)" stroke-width="1">
        <ellipse cx="1125.867" cy="270.827" rx="1125.867" ry="270.827" stroke="none"/>
        <ellipse cx="1125.867" cy="270.827" rx="1125.367" ry="270.327" fill="none"/>
      </g>
    </g>
    <g id="Сгруппировать_8310" data-name="Сгруппировать 8310" transform="translate(51 -4288.387)" opacity="0.7">
      <g id="Эллипс_688-2" data-name="Эллипс 688" transform="matrix(0.985, 0.174, -0.174, 0.985, 316.788, 9739.461)" fill="rgba(255,255,255,0)" stroke="rgba(255,255,255,0.25)" stroke-width="1">
        <ellipse cx="684.961" cy="164.767" rx="684.961" ry="164.767" stroke="none"/>
        <ellipse cx="684.961" cy="164.767" rx="684.461" ry="164.267" fill="none"/>
      </g>
    </g>
    <g id="Сгруппировать_8313" data-name="Сгруппировать 8313" transform="translate(315.965 -4191.234)">
      <g id="Эллипс_688-3" data-name="Эллипс 688" transform="matrix(0.985, 0.174, -0.174, 0.985, 291.279, 9737.502)" fill="rgba(255,255,255,0)" stroke="rgba(255,255,255,0.25)" stroke-width="1">
        <ellipse cx="379.612" cy="91.315" rx="379.612" ry="91.315" stroke="none"/>
        <ellipse cx="379.612" cy="91.315" rx="379.112" ry="90.815" fill="none"/>
      </g>
    </g>
    <g id="Сгруппировать_8250" data-name="Сгруппировать 8250" transform="translate(470.675 5854.945)">
      <ellipse id="Эллипс_579" data-name="Эллипс 579" cx="42.5" cy="43" rx="42.5" ry="43" transform="translate(0.325 0.531)" opacity="0.43" fill="url(#linear-gradient)"/>
      <ellipse id="Эллипс_578" data-name="Эллипс 578" cx="38.5" cy="39" rx="38.5" ry="39" transform="translate(4.325 3.531)" fill="url(#linear-gradient)"/>
    </g>
    <g id="Сгруппировать_8400" data-name="Сгруппировать 8400" transform="translate(1226.103 5788.42)">
      <ellipse id="Эллипс_579-2" data-name="Эллипс 579" cx="21.064" cy="20.462" rx="21.064" ry="20.462" transform="translate(-0.102 0.539)" opacity="0.43" fill="url(#linear-gradient-3)"/>
      <circle id="Эллипс_578-2" data-name="Эллипс 578" cx="18.656" cy="18.656" r="18.656" transform="translate(2.305 1.742)" fill="url(#linear-gradient-3)"/>
    </g>
    <g id="Сгруппировать_8254" data-name="Сгруппировать 8254" transform="translate(1540.052 5690.135)">
      <ellipse id="Эллипс_579-3" data-name="Эллипс 579" cx="43.455" cy="44.953" rx="43.455" ry="44.953" transform="translate(0.325 -0.091)" opacity="0.43" fill="url(#linear-gradient-5)"/>
      <circle id="Эллипс_578-3" data-name="Эллипс 578" cx="40.458" cy="40.458" r="40.458" transform="translate(3.322 2.906)" fill="url(#linear-gradient-5)"/>
    </g>
  </g>
</svg>
