<svg xmlns="http://www.w3.org/2000/svg" xmlns:xlink="http://www.w3.org/1999/xlink" width="848" height="255.069"
     viewBox="0 0 848 255.069">
  <defs>
    <clipPath id="a">
      <rect width="848" height="255.069" fill="none"/>
    </clipPath>
    <radialGradient id="b" cx="0.511" cy="1.691" r="1.691"
                    gradientTransform="translate(-0.054 1.814) rotate(-90) scale(1 0.431)"
                    gradientUnits="objectBoundingBox">
      <stop offset="0" stop-color="#fff"/>
      <stop offset="0.421" stop-color="#fefbee"/>
      <stop offset="1" stop-color="#625dff"/>
    </radialGradient>
  </defs>
  <g clip-path="url(#a)">
    <g transform="translate(-536 -289.617)">
      <g transform="translate(516.49 282.793)" fill="url(#b)">
        <path
          d="M776.513,255.086a127.584,127.584,0,0,1-43.167-7.274,97.243,97.243,0,0,1-35.419-21.821l16.128-29.252a120.176,120.176,0,0,0,31.151,18.816,81.082,81.082,0,0,0,29.727,6.009c8.7,0,15.812-1.581,20.872-4.744a15.23,15.23,0,0,0,8.064-14.073c0-6.325-3.162-10.752-9.8-12.966-6.483-2.53-15.654-5.534-27.355-9.171a235.611,235.611,0,0,1-32.731-12.334c-8.7-4.269-15.337-9.487-19.923-15.5-4.269-6.009-6.325-13.915-6.325-23.4,0-17.393,6.483-30.992,19.607-41.428A81.59,81.59,0,0,1,779.2,72.614a106.624,106.624,0,0,1,35.735,6.009A83.806,83.806,0,0,1,845.77,97.439L827.427,125.9a82.855,82.855,0,0,0-50.282-20.081,43.585,43.585,0,0,0-19.133,3.953Q749.949,113.8,749.948,124c0,6.325,2.53,10.594,7.748,13.282,5.376,2.688,13.44,5.692,24.193,8.855,14.073,4.269,25.774,8.38,35.419,12.333,9.962,4.111,17.393,9.171,22.295,15.5,5.218,6.325,7.906,14.705,7.906,25.457,0,17.393-6.483,31.15-19.291,41.112-12.808,9.645-30.043,14.547-51.706,14.547ZM650.807,127.008c10.752-5.376,23.086-7.906,36.684-7.906V77.99a73.517,73.517,0,0,0-9.013-.316,60.084,60.084,0,0,0-30.992,11.385,76.528,76.528,0,0,0-23.718,28.462V80.2H582.34v39.372c7.274-1.107,22.611,0,25.3,12.65,3.162,15.5-6.325,30.2-25.3,32.257v91.394h45.223V149.461A47.435,47.435,0,0,1,650.807,127.008ZM264.674,110.721V211.761l45.223-15.18v-85.86h37.158V76.093H309.9V19.169H264.674V76.093H241.431v34.629Zm73.21,140.253a194.508,194.508,0,0,0,22.611-7.906l-9.013-35.735L266.73,226.308c0,2.055,1.107,5.218,4.111,10.594a36.107,36.107,0,0,0,16.919,13.756,59.843,59.843,0,0,0,22.928,4.427A91.356,91.356,0,0,0,337.885,250.975ZM186.879,68.187c6.641,3.637,10.91,6.483,12.808,8.7L220.242,39.25a178.676,178.676,0,0,0-37-18.342A132.663,132.663,0,0,0,136.6,12.844c-16.128,0-30.834,2.846-44.274,8.7A71.154,71.154,0,0,0,60.7,46.84a69.731,69.731,0,0,0-11.385,40.8c0,12.334,2.372,22.453,7.432,30.518,4.744,7.906,12.333,14.547,22.137,19.923,10.12,5.06,22.928,9.8,38.265,14.073,12.333,3.479,23.086,6.8,32.257,9.645,9.487,3,16.761,6.483,22.137,10.752a20.8,20.8,0,0,1,7.59,16.761c0,16.445-12.65,24.509-38.423,24.509a107.523,107.523,0,0,1-26.723-3.321,166.817,166.817,0,0,1-43.167-17.868,72.429,72.429,0,0,1-10.752-7.906L39.51,224.568a165.157,165.157,0,0,0,46.8,22.769c7.906,2.056,24.667,6.009,30.834,5.06l100.091-27.2a61.668,61.668,0,0,0,11.543-40.479c0-14.547-3.162-26.248-9.487-34.945a62.931,62.931,0,0,0-26.564-21.5,245.859,245.859,0,0,0-40.953-14.231q-18.026-4.507-30.359-8.539a49.017,49.017,0,0,1-18.184-9.8,20.24,20.24,0,0,1-6.009-15.5c0-17.868,12.65-26.881,37.949-26.881a116.693,116.693,0,0,1,51.547,14.705ZM140.075,255.4c15.812,0,30.359-2.214,43.8-6.957a71.446,71.446,0,0,0,18.658-9.487l-80.009,15.5,17.393.949Zm243.348-84.911c6.483-8.7,15.5-15.5,26.88-20.081,11.543-4.744,24.825-7.115,39.53-7.115A124.42,124.42,0,0,1,472.6,145.35c5.376.316,10.436,1.265,16.287,1.423l.949-.316,2.53-5.534c0-11.069-3.163-19.765-10.12-25.774-6.325-6.009-16.287-9.013-29.253-9.013a77.27,77.27,0,0,0-27.671,4.9A144.776,144.776,0,0,0,397.655,125.9L383.107,96.332a131.24,131.24,0,0,1,74.633-22.769c25.141,0,44.748,6.325,58.5,18.816,14.547,11.543,16.6,18.658,19.765,40.8l-46.171,13.282v.316h-.949L380.261,178.081l3.162-7.59Zm156.54,41.9c-1.581-1.9-2.372-5.376-2.372-10.278l-.158-28.145-46.488,9.487,1.581,10.594c0,4.744-2.688,9.962-8.38,15.338a53.287,53.287,0,0,1-35.735,13.44c-10.12,0-17.867-2.688-23.244-7.906a24.983,24.983,0,0,1-8.222-18.184l-42.693,7.59c0,10.436,2.53,16.128,7.748,24.509a58.979,58.979,0,0,0,53.445,26.881,80.884,80.884,0,0,0,34.787-7.748,78.746,78.746,0,0,0,29.094-23.086l.949,9.013a24.334,24.334,0,0,0,8.539,14.863c4.744,3.953,11.543,6.009,20.556,6.009,2.214,0,4.9-.316,8.064-.633A75.912,75.912,0,0,0,548.5,252.4V215.872c-3.953-.474-6.8-1.581-8.381-3.479Z"
          stroke="none"/>
        <path
          d="M 626.562744140625 254.8765716552734 L 626.562744140625 149.2293701171875 L 626.66455078125 149.0214691162109 C 629.1448364257812 143.9528656005859 632.4602661132812 139.3950653076172 636.5187377929688 135.4746704101562 C 640.5723876953125 131.5589447021484 645.2357177734375 128.4061279296875 650.3796997070312 126.1033630371094 C 655.74560546875 123.4225234985352 661.630859375 121.3895416259766 667.8731689453125 120.0605621337891 C 673.6832275390625 118.8235931396484 679.9418334960938 118.1668930053711 686.4905395507812 118.1062927246094 L 686.4905395507812 78.90388488769531 C 684.4721069335938 78.73429107666016 682.4312744140625 78.64846801757812 680.4107666015625 78.64846801757812 C 679.7871704101562 78.64846801757812 679.1537475585938 78.65666198730469 678.52734375 78.67295837402344 C 667.5209350585938 79.49034118652344 656.9913940429688 83.36073303222656 648.07666015625 89.86576843261719 C 643.107177734375 93.50106811523438 638.5887451171875 97.74266815185547 634.64697265625 102.4727630615234 C 630.7051391601562 107.202766418457 627.3478393554688 112.4119644165039 624.6682739257812 117.95556640625 L 622.7679443359375 117.5203628540039 L 622.7679443359375 81.20386505126953 L 583.3399658203125 81.20386505126953 L 583.3399658203125 118.4382171630859 C 584.4907836914062 118.3131332397461 585.7216186523438 118.2479629516602 586.9588623046875 118.2479629516602 C 589.1587524414062 118.2479629516602 591.3109741210938 118.4459609985352 593.3555297851562 118.8365631103516 C 595.7496337890625 119.2938613891602 597.931640625 120.0070648193359 599.8408813476562 120.9562683105469 C 602.0555419921875 122.0573654174805 603.90576171875 123.4794616699219 605.3400268554688 125.1830673217773 C 606.9600219726562 127.1071624755859 608.062744140625 129.4067687988281 608.61767578125 132.0178680419922 L 608.6192626953125 132.0257720947266 C 609.4252319335938 135.9750671386719 609.4475708007812 139.8794708251953 608.6857299804688 143.6305694580078 C 607.9252319335938 147.3747711181641 606.4154663085938 150.8126678466797 604.1981811523438 153.8487701416016 C 601.88623046875 157.0143585205078 598.8938598632812 159.6178588867188 595.3041381835938 161.5870666503906 C 591.776611328125 163.5220336914062 587.7557373046875 164.7929534912109 583.3399658203125 165.3700714111328 L 583.3399658203125 254.8765716552734 L 626.562744140625 254.8765716552734 M 431.55224609375 254.8467712402344 C 432.8229370117188 254.8467712402344 434.1104431152344 254.8043670654297 435.3790588378906 254.7206573486328 L 435.4448547363281 254.7184600830078 C 447.4737548828125 254.7184600830078 459.0343627929688 252.1437683105469 469.8055419921875 247.0659637451172 L 469.8126525878906 247.0626678466797 C 475.4139404296875 244.4754638671875 480.7047424316406 241.2191619873047 485.5379638671875 237.3840637207031 C 490.3712463378906 233.5489654541016 494.7449645996094 229.1367645263672 498.537353515625 224.2700653076172 L 500.0611572265625 222.3146667480469 L 501.2663269042969 233.7650909423828 C 501.7190856933594 236.5372619628906 502.634521484375 239.1337280273438 503.9874572753906 241.4824676513672 C 505.3390502929688 243.8288879394531 507.180419921875 246.0211791992188 509.4607543945312 247.998779296875 C 511.7305908203125 249.8883819580078 514.5272216796875 251.3316650390625 517.7732543945312 252.2885589599609 C 521.1070556640625 253.2713623046875 525.008544921875 253.7696685791016 529.3693237304688 253.7696685791016 C 531.1929321289062 253.7696685791016 533.380126953125 253.5457611083984 535.9126586914062 253.2864685058594 C 536.3753662109375 253.2390594482422 536.8491821289062 253.1905670166016 537.3341674804688 253.1420593261719 L 537.3431396484375 253.1411590576172 C 541.2271118164062 252.7880706787109 544.398681640625 252.3096160888672 547.5020751953125 251.6044616699219 L 547.5020751953125 216.7462615966797 C 543.8671875 216.2020111083984 541.294921875 215.0999298095703 539.673095703125 213.3927001953125 L 539.49462890625 213.3924713134766 L 539.1952514648438 213.0331573486328 C 537.46826171875 210.9605255126953 536.59228515625 207.2890777587891 536.5916748046875 202.1208648681641 L 536.4404907226562 175.1930694580078 L 492.0749816894531 184.2472839355469 L 493.52685546875 193.9769592285156 L 493.52685546875 194.0511627197266 C 493.52685546875 196.6166687011719 492.7950439453125 199.2765655517578 491.3518371582031 201.9569702148438 C 489.8960571289062 204.6606597900391 487.7029418945312 207.40576171875 484.833251953125 210.1158599853516 L 484.8106384277344 210.1366577148438 C 474.8662414550781 218.9667663574219 462.0653381347656 223.8299713134766 448.7657470703125 223.8304595947266 C 448.6445617675781 223.8304595947266 448.5255432128906 223.8300628662109 448.4044494628906 223.8292694091797 L 448.4044494628906 223.8292541503906 C 438.12890625 223.8279113769531 430.0802612304688 221.0769805908203 424.4838562011719 215.6532745361328 C 421.8254699707031 213.2458038330078 419.7283935546875 210.3680725097656 418.2505493164062 207.0998687744141 C 416.931884765625 204.1836090087891 416.17236328125 201.1027069091797 415.9872131347656 197.9251403808594 L 375.2577819824219 205.166015625 C 375.3858337402344 214.7149658203125 377.7418518066406 220.1061553955078 382.8460083007812 228.3040924072266 C 385.4898071289062 232.4010772705078 388.6427612304688 236.152587890625 392.2175598144531 239.4548645019531 C 395.7352600097656 242.7043609619141 399.6541442871094 245.5130615234375 403.8656616210938 247.8028717041016 C 408.0687561035156 250.0881652832031 412.5480651855469 251.8484649658203 417.1792602539062 253.0350646972656 C 421.8712463378906 254.2372589111328 426.7070617675781 254.8467712402344 431.55224609375 254.8467712402344 M 140.0750579833984 254.4021606445312 C 147.9692535400391 254.4021606445312 155.5843505859375 253.8343658447266 162.7089538574219 252.7144622802734 C 169.9630584716797 251.5742645263672 176.9722595214844 249.8204650878906 183.5418548583984 247.5017700195312 L 183.5519561767578 247.4982604980469 C 188.7083740234375 245.7403564453125 193.4039459228516 243.5644378662109 197.7862548828125 240.8954620361328 L 130.6618499755859 253.8958892822266 L 139.94384765625 254.4021606445312 L 140.0750579833984 254.4021606445312 M 310.687744140625 254.0858612060547 C 315.3094482421875 254.0858612060547 319.9335632324219 253.7372589111328 324.431640625 253.0498657226562 C 328.8331604003906 252.3771667480469 333.2600402832031 251.3575592041016 337.58935546875 250.0193634033203 L 337.6133422851562 250.0122680664062 C 344.9630432128906 247.9404296875 352.2598571777344 245.4071197509766 359.3157043457031 242.4779205322266 L 350.7515258789062 208.5217590332031 L 267.7878723144531 227.0957641601562 C 268.066162109375 229.1301422119141 269.3513793945312 232.1816711425781 271.6939086914062 236.3780059814453 C 275.9231567382812 242.6296997070312 281.3004150390625 246.9975433349609 288.1315612792969 249.7299652099609 L 288.1387634277344 249.7329711914062 C 291.6093444824219 251.1526641845703 295.224365234375 252.2378692626953 298.8834533691406 252.9583587646484 C 302.6834411621094 253.7064666748047 306.6549377441406 254.0858612060547 310.687744140625 254.0858612060547 M 776.512939453125 254.0858612060547 L 776.512451171875 254.0858612060547 C 787.1781616210938 254.0858612060547 796.9021606445312 252.8682708740234 805.4143676757812 250.4669647216797 C 809.6427612304688 249.2740631103516 813.6573486328125 247.7646636962891 817.3467407226562 245.9806671142578 C 821.0219116210938 244.2035064697266 824.4761352539062 242.1046600341797 827.613525390625 239.7422485351562 C 830.7374877929688 237.3113098144531 833.51171875 234.6150360107422 835.8597412109375 231.7275695800781 C 838.207275390625 228.8408660888672 840.19287109375 225.6839599609375 841.761474609375 222.3447570800781 C 843.332763671875 218.9997711181641 844.5289306640625 215.3795623779297 845.3169555664062 211.5846710205078 C 846.1080322265625 207.7743682861328 846.5091552734375 203.6839599609375 846.5091552734375 199.4272613525391 C 846.5091552734375 194.2118682861328 845.8528442382812 189.4712677001953 844.558349609375 185.3370666503906 C 843.2896728515625 181.2849578857422 841.3628540039062 177.674560546875 838.8313598632812 174.6062622070312 L 838.8123779296875 174.5824584960938 C 834.0955810546875 168.4962615966797 826.9365234375 163.5294647216797 816.9286499023438 159.399169921875 C 807.0582885742188 155.35400390625 795.174560546875 151.2160797119141 781.6061401367188 147.0998229980469 L 781.6061401367188 147.0998687744141 C 771.103271484375 144.0106658935547 762.9081420898438 141.0096588134766 757.2486572265625 138.1800689697266 L 757.2378540039062 138.1746673583984 C 751.6595458984375 135.3008575439453 748.9478759765625 130.6653594970703 748.9478759765625 124.0034637451172 C 748.9478759765625 116.8263626098633 751.8470458984375 111.7374649047852 757.56494140625 108.8781661987305 L 757.5753784179688 108.8730621337891 C 763.113037109375 106.1832656860352 769.697265625 104.819465637207 777.1450805664062 104.819465637207 L 777.192138671875 104.8205642700195 C 786.528564453125 105.2607650756836 795.6637573242188 107.2416610717773 804.3438720703125 110.708366394043 C 812.6678466796875 114.0327835083008 820.3534545898438 118.6353988647461 827.2061157226562 124.3982086181641 L 844.4806518554688 97.59328460693359 C 840.3170776367188 93.67430877685547 835.7377319335938 90.18150329589844 830.8578491210938 87.20346832275391 C 825.7438354492188 84.08266448974609 820.2777709960938 81.51386260986328 814.6114501953125 79.56846618652344 L 814.6040649414062 79.56586456298828 C 809.028564453125 77.60276794433594 803.2520751953125 76.10756683349609 797.4349365234375 75.12196350097656 C 791.5297241210938 74.12146759033203 785.3948364257812 73.61416625976562 779.2006225585938 73.61416625976562 L 779.1504516601562 73.61286163330078 C 777.8059692382812 73.54526519775391 776.4422607421875 73.51096343994141 775.0973510742188 73.51096343994141 C 766.6775512695312 73.51096343994141 758.344970703125 74.82326507568359 750.3311767578125 77.41136169433594 C 742.3092041015625 80.00205230712891 734.7764282226562 83.81642150878906 727.9404907226562 88.74948883056641 C 724.7335205078125 91.30158996582031 721.8980102539062 94.08170318603516 719.5121459960938 97.01286315917969 C 717.119140625 99.95296478271484 715.1015625 103.1398620605469 713.5154418945312 106.4850616455078 C 711.9264526367188 109.8363647460938 710.7190551757812 113.4552612304688 709.9267578125 117.2410659790039 C 709.1326293945312 121.0355682373047 708.72998046875 125.1195678710938 708.72998046875 129.3795623779297 C 708.72998046875 138.7822723388672 710.79248046875 146.4562072753906 714.8606567382812 152.1893615722656 C 719.392822265625 158.1220245361328 725.9703369140625 163.2312164306641 734.4110717773438 167.3759460449219 C 744.9180908203125 172.2532196044922 755.8793334960938 176.3831634521484 766.9915771484375 179.6514587402344 L 767.0061645507812 179.6559600830078 C 780.1093139648438 183.7285308837891 788.5616455078125 186.5622100830078 794.4052124023438 188.8416137695312 C 797.8653564453125 189.9992218017578 800.5071411132812 191.7768707275391 802.258056640625 194.1255645751953 C 803.9896240234375 196.4484710693359 804.86767578125 199.349365234375 804.86767578125 202.7478637695312 C 804.86767578125 206.0598602294922 804.1444702148438 208.9941711425781 802.7180786132812 211.4693603515625 C 801.306396484375 213.9189147949219 799.1550903320312 216.0066528320312 796.3236083984375 217.6748809814453 C 793.7230224609375 219.2983093261719 790.5698852539062 220.5361175537109 786.95166015625 221.353759765625 C 783.3973388671875 222.1569671630859 779.353271484375 222.5642700195312 774.9317626953125 222.5642700195312 C 765.1521606445312 222.5642700195312 755.3094482421875 220.5763702392578 744.8413696289062 216.4869689941406 L 744.82373046875 216.4799652099609 C 733.8125610351562 211.93603515625 723.565673828125 205.8156280517578 714.347900390625 198.2785034179688 L 699.1734008789062 225.8011474609375 C 703.99951171875 230.3856811523438 709.3136596679688 234.4759826660156 714.9800415039062 237.9668579101562 C 720.8633422851562 241.5913696289062 727.1536254882812 244.5862579345703 733.676025390625 246.8683624267578 L 733.6813354492188 246.8702697753906 C 740.437744140625 249.2776641845703 747.482666015625 251.1048583984375 754.620361328125 252.3009643554688 C 761.6876220703125 253.4853668212891 769.0533447265625 254.0858612060547 776.512939453125 254.0858612060547 M 114.8936538696289 251.5423583984375 C 115.6891937255859 251.5423583984375 116.3777236938477 251.5003967285156 116.9415893554688 251.41748046875 L 216.6334381103516 224.3290557861328 C 220.6795806884766 218.6652069091797 223.6987915039062 212.4001007080078 225.6085510253906 205.7025604248047 C 227.5506591796875 198.8920593261719 228.2823486328125 191.8568572998047 227.7835540771484 184.7923583984375 L 227.7810516357422 184.7572631835938 L 227.7810516357422 184.7219696044922 C 227.7810516357422 177.5642700195312 226.9947509765625 171.0355682373047 225.4440460205078 165.3173675537109 C 223.8993530273438 159.6213684082031 221.5580444335938 154.5907592773438 218.4851531982422 150.3653717041016 L 218.4772491455078 150.3543701171875 C 211.8792572021484 141.0193634033203 202.83935546875 133.7013702392578 192.3349456787109 129.1915588378906 L 192.3072509765625 129.1791687011719 C 181.0090484619141 123.9169845581055 167.2869720458984 119.1493911743164 151.5240783691406 115.0094680786133 C 139.5516967773438 112.0162734985352 129.3244171142578 109.1398468017578 121.1232147216797 106.4592437744141 C 117.7319869995117 105.4750289916992 114.4362030029297 104.1262054443359 111.3279495239258 102.4504623413086 C 108.2149505615234 100.7721633911133 105.2728500366211 98.75676727294922 102.5833511352539 96.46016693115234 L 102.5310516357422 96.41216278076172 C 98.20709228515625 92.15331268310547 95.90921020507812 86.23701477050781 96.22417449951172 80.17692565917969 C 96.22740936279297 75.59255981445312 97.05744934082031 71.50907897949219 98.69125366210938 68.03966522216797 C 100.3399505615234 64.53886413574219 102.8436508178711 61.58076477050781 106.1328506469727 59.24746322631836 C 109.3875503540039 56.93866348266602 113.4946517944336 55.18576431274414 118.3400497436523 54.03756332397461 C 123.1404495239258 52.89996337890625 128.803955078125 52.32316589355469 135.1733551025391 52.32316589355469 L 135.2194519042969 52.32426452636719 C 144.2997589111328 52.74356460571289 153.3360595703125 54.22056579589844 162.0772552490234 56.71426391601562 C 170.8185577392578 59.20796585083008 179.2739562988281 62.72086334228516 187.2086486816406 67.15556335449219 L 187.3297576904297 67.2232666015625 L 187.4848480224609 67.37835693359375 C 193.3917694091797 70.61882019042969 197.2587890625 73.14460754394531 199.4605255126953 75.21106719970703 L 218.9193725585938 39.58634948730469 C 207.6369476318359 32.34188842773438 195.5247650146484 26.37646293640137 182.9044494628906 21.84966468811035 L 182.8986511230469 21.84756469726562 C 175.6885528564453 19.2110652923584 168.1997528076172 17.19546508789062 160.6402587890625 15.85686492919922 C 153.0820465087891 14.51836490631104 145.3579559326172 13.83976459503174 137.6823577880859 13.83976459503174 C 137.6533966064453 13.83976459503174 137.6244659423828 13.83977508544922 137.5955505371094 13.83979415893555 L 137.5955505371094 13.84416484832764 L 136.5956573486328 13.84416484832764 C 128.6070556640625 13.84416484832764 120.884651184082 14.56276512145996 113.6431503295898 15.98006439208984 C 106.3605499267578 17.40536499023438 99.32154846191406 19.58476448059082 92.72145080566406 22.45766448974609 L 92.69895172119141 22.46716499328613 C 86.433349609375 25.01466369628906 80.57845306396484 28.44866371154785 75.29695129394531 32.67396545410156 C 70.01899719238281 36.89632797241211 65.38612365722656 41.85089111328125 61.5269775390625 47.39986419677734 C 57.63921356201172 53.32700347900391 54.70208740234375 59.79373550415039 52.79665374755859 66.62126159667969 C 50.89015197753906 73.45296478271484 50.05435180664062 80.51096343994141 50.31265258789062 87.59896087646484 L 50.31335067749023 87.63536834716797 C 50.31335067749023 93.74216461181641 50.91585159301758 99.33566284179688 52.10395050048828 104.2605667114258 C 53.30385208129883 109.2344665527344 55.15035247802734 113.7297668457031 57.5921516418457 117.6213684082031 L 57.6025505065918 117.6383666992188 C 62.12636566162109 125.1779174804688 69.44187164306641 131.7559509277344 79.34648132324219 137.1902160644531 C 89.52986907958984 142.2801055908203 102.3378372192383 146.9886779785156 117.4190521240234 151.1864624023438 C 129.3497467041016 154.5515594482422 139.4967498779297 157.6725616455078 149.7005462646484 160.8391571044922 L 149.7060546875 160.8409576416016 C 159.446044921875 163.9252624511719 166.7918548583984 167.4980621337891 172.1631469726562 171.7634582519531 L 172.1861572265625 171.7822570800781 C 174.8234558105469 174.0076599121094 176.8280487060547 176.6061706542969 178.1441497802734 179.5057678222656 C 179.4624481201172 182.4103698730469 180.1309509277344 185.7080688476562 180.1309509277344 189.3074645996094 C 180.1309509277344 193.5640716552734 179.2928466796875 197.3412628173828 177.6397552490234 200.5342712402344 C 175.9766540527344 203.7467651367188 173.4473571777344 206.4509582519531 170.1221466064453 208.5716705322266 C 166.8457489013672 210.6611633300781 162.6968536376953 212.2445678710938 157.7906494140625 213.2777709960938 C 152.9429473876953 214.2985687255859 147.1953582763672 214.816162109375 140.7091522216797 214.816162109375 L 140.5000457763672 214.8163604736328 C 131.4830474853516 214.8164672851562 122.4791488647461 213.6888580322266 113.7357482910156 211.4640655517578 C 98.48505401611328 207.5381622314453 83.87454986572266 201.4906616210938 70.30995178222656 193.4893646240234 L 70.30235290527344 193.48486328125 C 66.80640411376953 191.380859375 63.47016525268555 188.9720001220703 60.36968612670898 186.314208984375 L 40.80017471313477 224.2488250732422 C 47.51704406738281 228.9046325683594 54.62091064453125 233.0764465332031 61.92885208129883 236.6561584472656 C 69.75534057617188 240.4900207519531 78.05094146728516 243.7599639892578 86.58609008789062 246.3755340576172 C 91.27857971191406 247.5950622558594 107.0780181884766 251.5423583984375 114.8936538696289 251.5423583984375 M 265.674560546875 210.3701934814453 L 308.8971557617188 195.86181640625 L 308.8971557617188 109.7212677001953 L 346.0556640625 109.7212677001953 L 346.0556640625 77.09266662597656 L 308.8971557617188 77.09266662597656 L 308.8971557617188 20.16896438598633 L 265.674560546875 20.16896438598633 L 265.674560546875 77.09266662597656 L 242.4306488037109 77.09266662597656 L 242.4306488037109 109.7212677001953 L 265.674560546875 109.7212677001953 L 265.674560546875 210.3701934814453 M 381.9853515625 176.5433044433594 L 483.1217956542969 147.3947143554688 C 481.8462524414062 147.2708740234375 480.5982971191406 147.1305236816406 479.3671569824219 146.9920654296875 C 477.0387573242188 146.7302703857422 474.8394470214844 146.4828643798828 472.545166015625 146.3479614257812 L 472.4837646484375 146.3443603515625 L 472.4231567382812 146.3331604003906 C 464.9531555175781 144.9611663818359 457.5642395019531 144.2941589355469 449.8344421386719 144.2941589355469 C 435.2242431640625 144.2941589355469 422.0521545410156 146.6628570556641 410.6840515136719 151.3344573974609 L 410.6775512695312 151.337158203125 C 399.5983276367188 155.7997436523438 390.7236633300781 162.4120483398438 384.2989807128906 170.9900054931641 L 381.9853515625 176.5433044433594 M 491.6530456542969 144.8942718505859 L 534.8970336914062 132.4541778564453 C 533.3047485351562 121.4244537353516 531.997802734375 114.7307739257812 529.4872436523438 109.2183609008789 C 528.15185546875 106.286262512207 526.4943237304688 103.7273635864258 524.2709350585938 101.1653671264648 C 522.0999755859375 98.66376495361328 519.3522338867188 96.12076568603516 515.6240234375 93.16246795654297 L 515.5733642578125 93.11936187744141 C 512.2058715820312 90.06146240234375 508.4280395507812 87.34316253662109 504.3449401855469 85.04006195068359 C 500.2562561035156 82.73386383056641 495.7516479492188 80.78196716308594 490.9560546875 79.23846435546875 C 486.1478576660156 77.69086456298828 480.9188537597656 76.51256561279297 475.4143371582031 75.73626708984375 C 469.8921508789062 74.95756530761719 463.9458618164062 74.56266784667969 457.7406616210938 74.56266784667969 L 457.7350463867188 74.56266784667969 C 457.4851379394531 74.56126403808594 457.2389526367188 74.56046295166016 456.9891662597656 74.56046295166016 C 443.9752502441406 74.56046295166016 431.0700378417969 76.50406646728516 418.6319580078125 80.33726501464844 C 406.4677429199219 84.08608245849609 394.9519348144531 89.57994842529297 384.3893432617188 96.67239379882812 L 398.0481567382812 124.4356384277344 C 402.5326232910156 121.4606323242188 406.9907531738281 118.7805709838867 411.3138427734375 116.4612655639648 C 415.9044494628906 113.9985656738281 420.4956665039062 111.8605651855469 424.9599609375 110.1066665649414 L 424.9689636230469 110.1031646728516 C 433.60205078125 106.8069610595703 443.0319519042969 105.1356658935547 452.9968566894531 105.1356658935547 C 459.5751647949219 105.1356658935547 465.4326477050781 105.908561706543 470.4065551757812 107.4327621459961 C 475.4652099609375 108.9830093383789 479.6758117675781 111.329704284668 482.9220581054688 114.408203125 C 486.4539184570312 117.4639205932617 489.1215209960938 121.2891235351562 490.8513488769531 125.7783660888672 C 492.5220642089844 130.1141662597656 493.369140625 135.2093658447266 493.369140625 140.92236328125 L 493.369140625 141.1400604248047 L 491.6530456542969 144.8942718505859 M 627.562744140625 255.8765716552734 L 582.3399658203125 255.8765716552734 L 582.3399658203125 164.4824676513672 C 601.3145751953125 162.4269714355469 610.8018798828125 147.7215576171875 607.6394653320312 132.2257690429688 C 604.9512939453125 119.576057434082 589.6134033203125 118.4691390991211 582.3399658203125 119.5760650634766 L 582.3399658203125 80.20386505126953 L 623.7679443359375 80.20386505126953 L 623.7679443359375 117.5203628540039 C 629.2235717773438 106.2337646484375 637.3682250976562 96.46006774902344 647.4862670898438 89.05866241455078 C 656.5509643554688 82.44416809082031 667.286865234375 78.5003662109375 678.4777221679688 77.67386627197266 C 681.4856567382812 77.59477233886719 684.4957275390625 77.70035552978516 687.4905395507812 77.99016571044922 L 687.4905395507812 119.1016616821289 C 673.892333984375 119.1016616821289 661.5589599609375 121.6315612792969 650.8068237304688 127.0077667236328 C 640.6692504882812 131.540771484375 632.4436645507812 139.4866638183594 627.562744140625 149.4609680175781 L 627.562744140625 255.8765716552734 Z M 431.55224609375 255.8468170166016 C 411.6123046875 255.8468170166016 392.9046325683594 245.7420806884766 382.000244140625 228.8377685546875 C 376.7822570800781 220.4574584960938 374.2522583007812 214.7650604248047 374.2522583007812 204.3290710449219 L 416.9449462890625 196.7391662597656 C 417.0407409667969 203.6795654296875 420.0196533203125 210.2672576904297 425.1673583984375 214.9230651855469 C 430.5436401367188 220.1411590576172 438.2916564941406 222.8292694091797 448.4111633300781 222.8292694091797 C 461.5730895996094 222.9166870117188 474.3037719726562 218.1289825439453 484.1466369628906 209.3888702392578 C 489.8390502929688 204.0128631591797 492.52685546875 198.7947692871094 492.52685546875 194.0511627197266 L 490.946044921875 183.4570617675781 L 537.4336547851562 173.9697570800781 L 537.5916748046875 202.1152648925781 C 537.5916748046875 207.0170593261719 538.382568359375 210.4956665039062 539.9635620117188 212.39306640625 L 540.1214599609375 212.3932647705078 C 541.702880859375 214.2906646728516 544.548828125 215.3973693847656 548.5020751953125 215.8718719482422 L 548.5020751953125 252.3977661132812 C 544.548828125 253.3465576171875 540.9121704101562 253.8208618164062 537.4336547851562 254.1370697021484 C 534.2710571289062 254.4534606933594 531.5828247070312 254.7696685791016 529.3693237304688 254.7696685791016 C 520.3563232421875 254.7696685791016 513.5572509765625 252.7140655517578 508.8134460449219 248.7610626220703 C 504.0697631835938 244.6498718261719 501.2233581542969 239.7481689453125 500.2747497558594 233.8976593017578 L 499.3261413574219 224.884765625 C 491.6075439453125 234.7896575927734 481.6318664550781 242.7050628662109 470.2319641113281 247.970458984375 C 459.1634521484375 253.1884613037109 447.4624633789062 255.7184600830078 435.4448547363281 255.7184600830078 C 434.1428833007812 255.8043518066406 432.8456115722656 255.8468170166016 431.55224609375 255.8468170166016 Z M 140.0750579833984 255.4021606445312 L 139.9168548583984 255.4021606445312 L 122.523551940918 254.4534606933594 L 202.5327453613281 238.9575653076172 C 196.9986572265625 242.9104614257812 190.8318481445312 246.0729675292969 183.8746490478516 248.4447631835938 C 170.4341583251953 253.1884613037109 155.8871459960938 255.4021606445312 140.0750579833984 255.4021606445312 Z M 776.512939453125 255.0858612060547 L 776.512451171875 255.0858612060547 C 776.512939453125 255.0858612060547 776.512939453125 255.0858612060547 776.512939453125 255.0858612060547 Z M 310.687744140625 255.0858612060547 C 302.3073425292969 255.0858612060547 294.7174377441406 253.5046691894531 287.7601623535156 250.6584625244141 C 280.6447448730469 247.8122711181641 275.1105651855469 243.2268676757812 270.8411560058594 236.9020690917969 C 267.8369445800781 231.5258636474609 266.7300415039062 228.3633575439453 266.7300415039062 226.307861328125 L 351.4830627441406 207.3332672119141 L 360.4959411621094 243.0685577392578 C 353.1284484863281 246.1660614013672 345.5769653320312 248.8063659667969 337.8846435546875 250.9747619628906 C 329.1880493164062 253.6628570556641 320.175048828125 255.0858612060547 310.687744140625 255.0858612060547 Z M 776.512939453125 255.0858612060547 C 761.4913330078125 255.0858612060547 747.1026611328125 252.7140655517578 733.3457641601562 247.8122711181641 C 720.1035766601562 243.1789703369141 708.0205688476562 235.7350616455078 697.9264526367188 225.9916687011719 L 714.0546264648438 196.7392578125 C 723.4229736328125 204.5562591552734 733.9265747070312 210.9012603759766 745.2052612304688 215.5555572509766 C 755.3245239257812 219.5086669921875 765.1283569335938 221.5642700195312 774.9317626953125 221.5642700195312 C 783.6279296875 221.5642700195312 790.74365234375 219.9830627441406 795.8035278320312 216.8206634521484 C 801.1795654296875 213.6580657958984 803.86767578125 209.0726623535156 803.86767578125 202.7478637695312 C 803.86767578125 196.4230651855469 800.7052612304688 191.9956665039062 794.0640258789062 189.7819671630859 C 787.5814819335938 187.2519683837891 778.4102783203125 184.2476654052734 766.7093505859375 180.6108703613281 C 755.5083618164062 177.3163604736328 744.5679321289062 173.1938629150391 733.9779663085938 168.2773590087891 C 725.2813720703125 164.0081634521484 718.6405639648438 158.7901611328125 714.0546264648438 152.7815704345703 C 709.7857666015625 146.7728576660156 707.72998046875 138.8668670654297 707.72998046875 129.3795623779297 C 707.72998046875 111.9861679077148 714.2127685546875 98.38776397705078 727.3369750976562 87.95176696777344 C 742.3783569335938 77.09148406982422 760.6716918945312 71.68141937255859 779.2006225585938 72.61416625976562 C 791.8501586914062 72.61416625976562 803.7095336914062 74.66966247558594 814.9361572265625 78.62266540527344 C 826.45947265625 82.57886505126953 836.9818725585938 89.00016784667969 845.769775390625 97.43906402587891 L 827.4273681640625 125.9009628295898 C 813.388427734375 113.7650680541992 795.6818237304688 106.6934661865234 777.1450805664062 105.819465637207 C 770.0296630859375 105.819465637207 763.5465698242188 107.0844650268555 758.0122680664062 109.7725677490234 C 752.6366577148438 112.4606628417969 749.9478759765625 117.2042617797852 749.9478759765625 124.0034637451172 C 749.9478759765625 130.3282623291016 752.4781494140625 134.5976715087891 757.6958618164062 137.2856597900391 C 763.072265625 139.9736633300781 771.1363525390625 142.9780578613281 781.8883666992188 146.1404571533203 C 795.9615478515625 150.40966796875 807.6622314453125 154.5208587646484 817.307861328125 158.4738616943359 C 827.2694702148438 162.5850677490234 834.7008666992188 167.6448669433594 839.6027221679688 173.9698638916016 C 844.8207397460938 180.2945709228516 847.5091552734375 188.6750640869141 847.5091552734375 199.4272613525391 C 847.5091552734375 216.8206634521484 841.0259399414062 230.5770721435547 828.2180786132812 240.5388641357422 C 815.41015625 250.1841583251953 798.1752319335938 255.0858612060547 776.512451171875 255.0858612060547 Z M 114.8936080932617 252.5423889160156 C 107.579719543457 252.5423889160156 93.39488220214844 249.1790161132812 86.31385040283203 247.3379669189453 C 68.762451171875 241.9617614746094 53.26665115356445 234.2139587402344 39.51005172729492 224.5684661865234 L 60.06585311889648 184.7219696044922 C 63.39885330200195 187.6825714111328 66.99825286865234 190.3291625976562 70.81805419921875 192.6280670166016 C 84.29775238037109 200.5792694091797 98.82915496826172 206.5941619873047 113.9850540161133 210.4956665039062 C 122.71826171875 212.7178649902344 131.6971893310547 213.8339538574219 140.7076568603516 213.816162109375 C 166.4813537597656 213.816162109375 179.1309509277344 205.7519683837891 179.1309509277344 189.3074645996094 C 179.1309509277344 182.3501586914062 176.6010589599609 176.8159637451172 171.5412445068359 172.5465698242188 C 166.1650543212891 168.2772674560547 158.8914489746094 164.7985687255859 149.4041595458984 161.7942657470703 C 140.233154296875 158.9481658935547 129.48095703125 155.6275634765625 117.1475524902344 152.1489715576172 C 101.8097534179688 147.8796691894531 89.00185394287109 143.1359710693359 78.88214874267578 138.0760650634766 C 69.07855224609375 132.7000579833984 61.48875045776367 126.058967590332 56.74505233764648 118.1528625488281 C 51.68535232543945 110.0886611938477 49.31345367431641 99.96886444091797 49.31335067749023 87.63536834716797 C 48.78675079345703 73.18546295166016 52.76535034179688 58.92926406860352 60.69815063476562 46.84016418457031 C 68.56635284423828 35.52186584472656 79.55284881591797 26.73266410827637 92.32234954833984 21.54076385498047 C 105.7627487182617 15.69026470184326 120.4679489135742 12.84406471252441 136.5964508056641 12.84416484832764 C 152.5029449462891 12.71398162841797 168.3027648925781 15.44556617736816 183.2420501708984 20.90836524963379 C 196.2430572509766 25.57176399230957 208.6593475341797 31.72686386108398 220.2423553466797 39.2503662109375 L 199.6866455078125 76.88316345214844 C 197.7893524169922 74.66956329345703 193.5198516845703 71.8233642578125 186.8788452148438 68.18656158447266 L 186.7207489013672 68.02846527099609 C 170.9122467041016 59.19316482543945 153.2640533447266 54.15866470336914 135.1733551025391 53.32316589355469 C 109.8739547729492 53.32316589355469 97.22415161132812 62.33606338500977 97.22415161132812 80.20376586914062 C 96.91605377197266 85.99106597900391 99.10375213623047 91.63286590576172 103.2327499389648 95.69966125488281 C 108.5288543701172 100.22216796875 114.7279510498047 103.5642623901367 121.4168548583984 105.5031661987305 C 129.6390533447266 108.1912612915039 139.7588500976562 111.037467956543 151.7761535644531 114.0417633056641 C 167.4300537109375 118.152961730957 181.1866455078125 122.8965682983398 192.7294464111328 128.2726593017578 C 203.3984527587891 132.8531646728516 212.5923461914062 140.2957611083984 219.2938537597656 149.7771606445312 C 225.6185455322266 158.4738616943359 228.7810516357422 170.1747589111328 228.7810516357422 184.7219696044922 C 229.7999572753906 199.1511688232422 225.7142486572266 213.4793701171875 217.2382507324219 225.2009582519531 L 117.1475524902344 252.3977661132812 C 116.5039443969727 252.4967956542969 115.7459182739258 252.5423889160156 114.8936080932617 252.5423889160156 Z M 264.674560546875 211.7606658935547 L 264.674560546875 110.7212677001953 L 241.4306488037109 110.7212677001953 L 241.4306488037109 76.09266662597656 L 264.674560546875 76.09266662597656 L 264.674560546875 19.16896438598633 L 309.8971557617188 19.16896438598633 L 309.8971557617188 76.09266662597656 L 347.0556640625 76.09266662597656 L 347.0556640625 110.7212677001953 L 309.8971557617188 110.7212677001953 L 309.8971557617188 196.5809631347656 L 264.674560546875 211.7606658935547 Z M 380.2614440917969 178.0808715820312 L 383.4235534667969 170.490966796875 C 389.9064636230469 161.7943572998047 398.9194641113281 154.9951629638672 410.303955078125 150.4095611572266 C 421.8469543457031 145.6660614013672 435.1292419433594 143.2941589355469 449.8344421386719 143.2941589355469 C 457.4243469238281 143.2941589355469 464.85595703125 143.9265594482422 472.6038513183594 145.3496704101562 C 477.9800415039062 145.6658630371094 483.0402526855469 146.6146697998047 488.8904418945312 146.7727661132812 L 489.83935546875 146.4565582275391 L 492.369140625 140.92236328125 C 492.369140625 129.853759765625 489.2066650390625 121.1571655273438 482.2494506835938 115.148567199707 C 475.9246520996094 109.1399612426758 465.9628601074219 106.1356658935547 452.9968566894531 106.1356658935547 C 443.3516540527344 106.1356658935547 434.0224609375 107.7168655395508 425.3256530761719 111.0373611450195 C 416.4710388183594 114.5160675048828 407.2998657226562 119.4178619384766 397.654541015625 125.9008636474609 L 383.1074523925781 96.33206176757812 C 404.8931884765625 81.49298858642578 430.6412658691406 73.56051635742188 456.9891967773438 73.56051635742188 C 457.2408447265625 73.56051635742188 457.4888916015625 73.56122589111328 457.7406616210938 73.56266784667969 C 482.8819580078125 73.56266784667969 502.4891662597656 79.88746643066406 516.2456665039062 92.37906646728516 C 530.7926635742188 103.9219665527344 532.84814453125 111.0373611450195 536.0106811523438 133.1743621826172 L 489.83935546875 146.4565582275391 L 489.83935546875 146.7727661132812 L 488.8906555175781 146.7727661132812 L 380.2614440917969 178.0808715820312 Z"
          stroke="none" fill="rgba(255,255,255,0.16)"/>
      </g>
      <g transform="translate(496.49 276.777)" fill="rgba(255,255,255,0)">
        <path
          d="M813,267.079a133.9,133.9,0,0,1-45.3-7.634,102.057,102.057,0,0,1-37.173-22.9l16.927-30.7a126.125,126.125,0,0,0,32.693,19.748,85.1,85.1,0,0,0,31.2,6.306c9.127,0,16.595-1.66,21.905-4.978a15.984,15.984,0,0,0,8.463-14.77c0-6.638-3.319-11.285-10.289-13.608-6.8-2.655-16.429-5.808-28.709-9.625a247.276,247.276,0,0,1-34.352-12.944c-9.127-4.481-16.1-9.957-20.91-16.263-4.48-6.306-6.638-14.6-6.638-24.56,0-18.255,6.8-32.526,20.578-43.479a85.629,85.629,0,0,1,54.431-16.1,111.9,111.9,0,0,1,37.5,6.306,87.955,87.955,0,0,1,32.36,19.748L866.434,131.5a86.957,86.957,0,0,0-52.772-21.076,45.743,45.743,0,0,0-20.08,4.149q-8.463,4.232-8.464,14.935c0,6.638,2.656,11.119,8.132,13.94,5.643,2.821,14.106,5.974,25.39,9.293,14.77,4.481,27.05,8.8,37.173,12.944,10.455,4.315,18.254,9.625,23.4,16.263,5.476,6.638,8.3,15.433,8.3,26.718,0,18.254-6.8,32.692-20.246,43.147-13.442,10.123-31.53,15.267-54.265,15.267ZM681.07,132.66c11.284-5.642,24.228-8.3,38.5-8.3V81.215a77.157,77.157,0,0,0-9.459-.332,63.059,63.059,0,0,0-32.526,11.948A80.317,80.317,0,0,0,652.692,122.7V83.539H609.213V124.86c7.634-1.162,23.731,0,26.552,13.276,3.319,16.263-6.638,31.7-26.552,33.854v95.919h47.462V156.225A49.784,49.784,0,0,1,681.07,132.66ZM275.822,115.567V221.608l47.461-15.931v-90.11h39V79.224h-39V19.482H275.822V79.224H251.427v36.343Zm76.835,147.2a204.142,204.142,0,0,0,23.731-8.3l-9.459-37.5-88.949,19.914c0,2.157,1.162,5.476,4.315,11.119a37.9,37.9,0,0,0,17.757,14.437,62.805,62.805,0,0,0,24.063,4.647A95.879,95.879,0,0,0,352.656,262.764ZM194.175,70.927c6.97,3.817,11.451,6.8,13.442,9.127l21.573-39.5a187.522,187.522,0,0,0-38.832-19.25A139.231,139.231,0,0,0,141.4,12.844c-16.927,0-32.36,2.987-46.466,9.127a74.677,74.677,0,0,0-33.19,26.552A73.183,73.183,0,0,0,49.8,91.338c0,12.944,2.489,23.565,7.8,32.028,4.979,8.3,12.944,15.267,23.233,20.91,10.621,5.31,24.063,10.289,40.16,14.77,12.944,3.651,24.229,7.136,33.854,10.123,9.957,3.153,17.591,6.8,23.233,11.285a21.833,21.833,0,0,1,7.965,17.591c0,17.259-13.276,25.722-40.325,25.722a112.847,112.847,0,0,1-28.046-3.485,175.075,175.075,0,0,1-45.3-18.752,76.015,76.015,0,0,1-11.285-8.3L39.51,235.05a173.332,173.332,0,0,0,49.121,23.9c8.3,2.157,25.888,6.306,32.36,5.31l105.046-28.543a64.72,64.72,0,0,0,12.114-42.483c0-15.267-3.319-27.548-9.957-36.675a66.047,66.047,0,0,0-27.879-22.569c-12.114-5.642-26.552-10.621-42.981-14.935q-18.918-4.73-31.862-8.961A51.443,51.443,0,0,1,106.387,99.8a21.242,21.242,0,0,1-6.306-16.263c0-18.752,13.276-28.211,39.828-28.211a122.47,122.47,0,0,1,54.1,15.433ZM145.054,267.41c16.595,0,31.862-2.323,45.968-7.3a74.982,74.982,0,0,0,19.582-9.957l-83.97,16.263,18.254,1Zm255.4-89.115c6.8-9.127,16.263-16.263,28.211-21.076,12.114-4.978,26.054-7.468,41.487-7.468a130.58,130.58,0,0,1,23.9,2.157c5.642.332,10.953,1.328,17.093,1.494l1-.332,2.655-5.808c0-11.617-3.319-20.744-10.621-27.05-6.638-6.306-17.093-9.459-30.7-9.459a81.1,81.1,0,0,0-29.041,5.144,151.942,151.942,0,0,0-29.041,15.6l-15.267-31.033a137.737,137.737,0,0,1,78.328-23.9c26.386,0,46.964,6.638,61.4,19.748,15.267,12.114,17.424,19.582,20.743,42.815l-48.457,13.94v.332h-1L397.131,186.261l3.319-7.966Zm164.29,43.977c-1.659-1.991-2.489-5.642-2.489-10.787l-.166-29.539L513.295,191.9l1.659,11.119c0,4.978-2.821,10.455-8.8,16.1a55.925,55.925,0,0,1-37.5,14.106c-10.621,0-18.752-2.821-24.395-8.3a26.22,26.22,0,0,1-8.629-19.084l-44.806,7.966c0,10.953,2.655,16.927,8.132,25.722a61.9,61.9,0,0,0,56.09,28.211,84.888,84.888,0,0,0,36.509-8.132,82.644,82.644,0,0,0,30.535-24.229l1,9.459a25.538,25.538,0,0,0,8.961,15.6c4.979,4.149,12.114,6.306,21.574,6.306,2.323,0,5.144-.332,8.464-.664a79.67,79.67,0,0,0,11.616-1.825V225.923c-4.149-.5-7.136-1.659-8.8-3.651Z"
          stroke="none"/>
        <path
          d="M 655.675048828125 266.9082641601562 L 655.675048828125 155.9929351806641 L 655.7767944335938 155.7849273681641 C 658.3773803710938 150.470703125 661.8535766601562 145.6919250488281 666.1088256835938 141.5814819335938 C 670.3589477539062 137.4758453369141 675.248291015625 134.1702575683594 680.6415405273438 131.7557983398438 C 686.27001953125 128.9437255859375 692.443359375 126.8111724853516 698.9913940429688 125.4170455932617 C 705.1004028320312 124.1164245605469 711.6823120117188 123.4274139404297 718.569580078125 123.3666687011719 L 718.569580078125 82.12889862060547 C 716.4356689453125 81.9483642578125 714.27685546875 81.85693359375 712.1394653320312 81.85693359375 C 711.4833374023438 81.85693359375 710.8180541992188 81.86560821533203 710.1614379882812 81.88262939453125 C 698.6002197265625 82.74069976806641 687.53955078125 86.80596923828125 678.17529296875 93.63904571533203 C 672.9563598632812 97.45671081542969 668.2113647460938 101.9110412597656 664.0718383789062 106.8783721923828 C 659.9322509765625 111.845817565918 656.4066162109375 117.3162612915039 653.5927124023438 123.1379318237305 L 651.6923828125 122.7027053833008 L 651.6923828125 84.53871154785156 L 610.21337890625 84.53871154785156 L 610.21337890625 123.7211608886719 C 611.4349975585938 123.5861968994141 612.7445678710938 123.5158233642578 614.0609130859375 123.5158233642578 C 616.3665771484375 123.5158233642578 618.6221313476562 123.7233734130859 620.7650146484375 124.1327056884766 C 623.2732543945312 124.61181640625 625.5588989257812 125.3588180541992 627.55859375 126.3530426025391 C 629.8768310546875 127.505485534668 631.813232421875 128.9938201904297 633.3142700195312 130.7765960693359 C 635.0091552734375 132.7897033691406 636.1629028320312 135.1958160400391 636.7434692382812 137.9281463623047 L 636.7451782226562 137.93603515625 C 637.5897216796875 142.0743713378906 637.61328125 146.1653747558594 636.81494140625 150.0955963134766 C 636.0183715820312 154.0180358886719 634.4365844726562 157.6197052001953 632.1138305664062 160.8002624511719 C 629.6917114257812 164.1167144775391 626.5565795898438 166.8443756103516 622.7955932617188 168.9074859619141 C 619.0875244140625 170.9414978027344 614.8584594726562 172.2755279541016 610.21337890625 172.8777923583984 L 610.21337890625 266.9082641601562 L 655.675048828125 266.9082641601562 M 450.9608154296875 266.8771667480469 C 452.2948303222656 266.8771667480469 453.6471557617188 266.8326110839844 454.9803771972656 266.7447204589844 L 455.046142578125 266.7424926757812 C 467.6777038574219 266.7424926757812 479.8178100585938 264.0386962890625 491.1289367675781 258.7062683105469 L 491.1360473632812 258.7029418945312 C 497.0182495117188 255.9861602783203 502.5742492675781 252.5666046142578 507.6499328613281 248.5391540527344 C 512.7255859375 244.5118255615234 517.3184814453125 239.8783721923828 521.3011474609375 234.7675933837891 L 522.824951171875 232.8121490478516 L 524.0772094726562 244.7095184326172 C 524.55322265625 247.6250762939453 525.51611328125 250.3559417724609 526.9391479492188 252.8263702392578 C 528.3599243164062 255.2930145263672 530.2955932617188 257.5977172851562 532.69189453125 259.6763305664062 C 535.0797119140625 261.6649169921875 538.0216674804688 263.18359375 541.4361572265625 264.1901550292969 C 544.9395141601562 265.2229309082031 549.038818359375 265.7466125488281 553.620361328125 265.7466125488281 C 555.5369262695312 265.7466125488281 557.8336791992188 265.511474609375 560.4930419921875 265.2392578125 C 560.9784545898438 265.1896057128906 561.4755859375 265.1387023925781 561.984375 265.0878295898438 L 561.9933471679688 265.0869445800781 C 566.0879516601562 264.7147216796875 569.4291381835938 264.2095947265625 572.7003784179688 263.4643859863281 L 572.7003784179688 226.7981719970703 C 568.8639526367188 226.2294311523438 566.1554565429688 225.0708160400391 564.4557495117188 223.2720642089844 L 564.2705078125 223.2719268798828 L 563.970947265625 222.9123687744141 C 562.1658935546875 220.7461700439453 561.2503662109375 216.9033508300781 561.2496948242188 211.4911499023438 L 561.0907592773438 183.1699981689453 L 514.4238891601562 192.6939086914062 L 515.9540405273438 202.9480438232422 L 515.9540405273438 203.0222625732422 C 515.9540405273438 205.7064819335938 515.1880493164062 208.4901580810547 513.67724609375 211.2959289550781 C 512.1519165039062 214.1288146972656 509.8533630371094 217.0055999755859 506.8455810546875 219.8462677001953 L 506.8229370117188 219.8670349121094 C 496.3954772949219 229.1261596679688 482.9724731445312 234.2257080078125 469.0262756347656 234.2262573242188 C 468.8994750976562 234.2262573242188 468.7750549316406 234.2258148193359 468.6481628417969 234.2250366210938 L 468.6481628417969 234.2250366210938 C 463.2748413085938 234.2245025634766 458.4365234375 233.5015258789062 454.2668151855469 232.0761566162109 C 450.0966491699219 230.6506652832031 446.5003051757812 228.4915466308594 443.5770263671875 225.6582794189453 C 440.7916259765625 223.1359710693359 438.593994140625 220.1208038330078 437.0455932617188 216.6964874267578 C 435.656494140625 213.6244506835938 434.8597106933594 210.3778839111328 434.6714477539062 207.0295104980469 L 391.8294372558594 214.6458892822266 C 391.9576110839844 224.7037048339844 394.4314575195312 230.3719635009766 399.79931640625 238.993896484375 C 402.5768127441406 243.298828125 405.8891906738281 247.2404174804688 409.6451416015625 250.7100372314453 C 413.3399353027344 254.1232604980469 417.4562683105469 257.0733642578125 421.8798217773438 259.4784851074219 C 426.2945861816406 261.8788146972656 430.9994812011719 263.7279357910156 435.8639221191406 264.9741516113281 C 440.7922668457031 266.2369384765625 445.87158203125 266.8771667480469 450.9608154296875 266.8771667480469 M 145.0535888671875 266.4104919433594 C 153.3411560058594 266.4104919433594 161.3359222412109 265.8143615722656 168.8157043457031 264.6386108398438 C 176.4319305419922 263.4414978027344 183.7910461425781 261.6000366210938 190.6888122558594 259.1655883789062 L 190.6989288330078 259.1620483398438 C 196.2061462402344 257.2845764160156 201.2123107910156 254.9533386230469 205.8814239501953 252.0848541259766 L 134.7715606689453 265.8572082519531 L 144.9155578613281 266.4104919433594 L 145.0535888671875 266.4104919433594 M 324.1127014160156 266.0785827636719 C 328.9656066894531 266.0785827636719 333.8211364746094 265.7125854492188 338.5444946289062 264.99072265625 C 343.166259765625 264.2842712402344 347.814697265625 263.2135925292969 352.3607177734375 261.8084716796875 L 352.3847045898438 261.8014831542969 C 360.1141357421875 259.6226196289062 367.7875061035156 256.9575805664062 375.2064208984375 253.8756713867188 L 366.1961364746094 218.1505126953125 L 279.0340576171875 237.6644744873047 C 279.3146667480469 239.8070220947266 280.6674194335938 243.0300140380859 283.1459045410156 247.4698791503906 C 287.5905456542969 254.0408477783203 293.2418823242188 258.631591796875 300.4214782714844 261.5034790039062 L 300.4287109375 261.5063781738281 C 304.0740356445312 262.9977111816406 307.8711547851562 264.1374816894531 311.7144775390625 264.8942565917969 C 315.705810546875 265.6801452636719 319.8771362304688 266.0785827636719 324.1127014160156 266.0785827636719 M 812.9991455078125 266.0785827636719 L 812.9987182617188 266.0785827636719 C 824.1968994140625 266.0785827636719 834.4069213867188 264.8001403808594 843.3447875976562 262.2785949707031 C 847.785400390625 261.0259399414062 852.00146484375 259.4408264160156 855.8760375976562 257.567138671875 C 859.7349243164062 255.7012939453125 863.3619384765625 253.4974975585938 866.6564331054688 251.0171356201172 C 869.939453125 248.4629058837891 872.85498046875 245.6295166015625 875.322509765625 242.5951538085938 C 877.7886962890625 239.5623779296875 879.8746948242188 236.2458190917969 881.522705078125 232.7375946044922 C 883.1734008789062 229.2234802246094 884.4300537109375 225.4203796386719 885.2578125 221.4338226318359 C 886.0886840820312 217.4314880371094 886.510009765625 213.1353759765625 886.510009765625 208.6644897460938 C 886.510009765625 203.1858215332031 885.8204956054688 198.2055969238281 884.4605102539062 193.8619384765625 C 883.1270141601562 189.6031494140625 881.101806640625 185.8083801269531 878.44091796875 182.5831604003906 L 878.4218139648438 182.5592651367188 C 873.4662475585938 176.1650390625 865.9462890625 170.947265625 855.4345092773438 166.6089324951172 C 845.0738525390625 162.3628997802734 832.599853515625 158.0194244384766 818.356689453125 153.6985015869141 C 807.337646484375 150.4574890136719 798.7401123046875 147.30908203125 792.8032836914062 144.3409271240234 L 792.79248046875 144.3354797363281 C 786.9560546875 141.3285980224609 784.1189575195312 136.4780426025391 784.1189575195312 129.5067138671875 C 784.1189575195312 121.9945983886719 787.1524658203125 116.6687088012695 793.13525390625 113.6768188476562 L 793.1455688476562 113.6717071533203 C 798.95068359375 110.8522644042969 805.8535766601562 109.4225997924805 813.66259765625 109.4225997924805 L 813.709716796875 109.4237060546875 C 823.5028076171875 109.8853759765625 833.0848388671875 111.963264465332 842.1895141601562 115.5993728637695 C 850.9379272460938 119.0933380126953 859.0145874023438 123.933708190918 866.2131958007812 129.9950866699219 L 884.395751953125 101.7814102172852 C 880.0154418945312 97.65449523925781 875.1964721679688 93.97711181640625 870.0602416992188 90.84271240234375 C 864.6900634765625 87.56548309326172 858.9500122070312 84.86792755126953 852.9998168945312 82.82504272460938 L 852.9923706054688 82.82248687744141 C 847.1382446289062 80.76126098632812 841.0730590820312 79.19137573242188 834.9651489257812 78.15648651123047 C 828.7649536132812 77.10604095458984 822.3236083984375 76.57337188720703 815.8199462890625 76.57337188720703 L 815.7697143554688 76.57215118408203 C 814.35791015625 76.50104522705078 812.9259033203125 76.46504211425781 811.5133666992188 76.46504211425781 C 802.6715698242188 76.46504211425781 793.9215087890625 77.84304046630859 785.5060424804688 80.56092834472656 C 777.0814819335938 83.28166198730469 769.1698608398438 87.28824615478516 761.9909057617188 92.46893310546875 C 758.6227416992188 95.14949798583984 755.6441040039062 98.06980895996094 753.1381225585938 101.1487121582031 C 750.6240234375 104.2374877929688 748.5044555664062 107.5854873657227 746.838134765625 111.0999298095703 C 745.1689453125 114.6207122802734 743.9005126953125 118.4223785400391 743.0681762695312 122.3994903564453 C 742.2340698242188 126.3851547241211 741.81103515625 130.6747131347656 741.81103515625 135.1490478515625 C 741.81103515625 145.0284118652344 743.9796142578125 153.0931701660156 748.2556762695312 159.1186370849609 C 753.0167846679688 165.3503112792969 759.9254760742188 170.7172698974609 768.7896118164062 175.0701446533203 C 779.819091796875 180.1902160644531 791.3265991210938 184.5260925292969 802.9924926757812 187.9572601318359 L 803.0070190429688 187.9617156982422 C 816.7579345703125 192.2356719970703 825.6280517578125 195.2094116210938 831.7596435546875 197.6010589599609 C 835.3818969726562 198.8126983642578 838.1475219726562 200.6728210449219 839.9790649414062 203.1299285888672 C 841.7899169921875 205.5590362548828 842.7080688476562 208.5935974121094 842.7080688476562 212.1494903564453 C 842.7080688476562 215.6165924072266 841.9512329101562 218.6879272460938 840.4586791992188 221.2780456542969 C 838.9815063476562 223.8413543701172 836.7293701171875 226.026611328125 833.7651977539062 227.77294921875 C 831.0403442382812 229.4741516113281 827.7362060546875 230.7711486816406 823.94384765625 231.6281585693359 C 820.217041015625 232.4703826904297 815.9765014648438 232.8973693847656 811.3397216796875 232.8973693847656 C 806.1998291015625 232.8973693847656 800.926025390625 232.3531494140625 795.6650390625 231.2799377441406 C 790.5131225585938 230.2289276123047 785.1679077148438 228.6283721923828 779.7777099609375 226.522705078125 L 779.7601318359375 226.5155944824219 C 768.1901245117188 221.7410583496094 757.4241943359375 215.3072052001953 747.7418212890625 207.3827972412109 L 731.7689208984375 236.3536834716797 C 736.8436889648438 241.1777954101562 742.4336547851562 245.482177734375 748.39404296875 249.1541595458984 C 754.5715942382812 252.9599304199219 761.176513671875 256.1047058105469 768.0250244140625 258.5009460449219 L 768.0304565429688 258.5028076171875 C 775.1241455078125 261.0303649902344 782.5205688476562 262.9488220214844 790.0145874023438 264.2047119140625 C 797.4343872070312 265.4481506347656 805.16748046875 266.0785827636719 812.9991455078125 266.0785827636719 M 118.6255950927734 263.4091491699219 C 119.4639129638672 263.4091491699219 120.1897735595703 263.3648071289062 120.7844772338867 263.2772521972656 L 225.4320526123047 234.8422241210938 C 229.6871185302734 228.8896026611328 232.8617248535156 222.3042907714844 234.8692626953125 215.2640380859375 C 236.9090423583984 208.1108245849609 237.6775970458984 200.7216033935547 237.1535949707031 193.3016052246094 L 237.1511535644531 193.2311553955078 C 237.1511535644531 185.7147064208984 236.3253784179688 178.8584899902344 234.6968231201172 172.8529357910156 C 233.0740356445312 166.8690490722656 230.6141510009766 161.5840454101562 227.3854827880859 157.1444854736328 L 227.3775939941406 157.1335906982422 C 220.4477081298828 147.3289337158203 210.9531555175781 139.642822265625 199.9202575683594 134.9061584472656 L 199.8925933837891 134.8938140869141 C 188.0322113037109 129.3697052001953 173.6281280517578 124.3653106689453 157.0821685791016 120.0197143554688 C 144.5184783935547 116.8785400390625 133.7841491699219 113.8595657348633 125.1777267456055 111.0465316772461 C 121.6217956542969 110.0145874023438 118.166145324707 108.6003570556641 114.9069290161133 106.84326171875 C 111.6428146362305 105.0834884643555 108.5580368041992 102.9702606201172 105.738151550293 100.5622634887695 L 105.7110366821289 100.5391540527344 L 105.6857070922852 100.5142669677734 C 101.1575164794922 96.05419921875 98.75122833251953 89.85903167724609 99.08139038085938 83.5128173828125 C 99.08446502685547 78.707763671875 99.95396423339844 74.4287109375 101.6659317016602 70.79348754882812 C 103.3924865722656 67.12726593017578 106.0148162841797 64.02915191650391 109.4598159790039 61.58537673950195 C 112.8703765869141 59.16593170166016 117.1750411987305 57.32892990112305 122.2540435791016 56.12526321411133 C 127.2883758544922 54.93226623535156 133.2284851074219 54.32737731933594 139.9093780517578 54.32737731933594 L 139.9554901123047 54.32848739624023 C 149.4814910888672 54.76837539672852 158.9612579345703 56.31782150268555 168.1314849853516 58.93392944335938 C 177.3018188476562 61.55004119873047 186.1722564697266 65.23537445068359 194.4964904785156 69.8878173828125 L 194.6174774169922 69.95537567138672 L 194.7804260253906 70.11826324462891 C 201.0218505859375 73.54197692871094 205.0924835205078 76.20468902587891 207.3917694091797 78.3787841796875 L 227.8668518066406 40.89372253417969 C 216.0111846923828 33.27693939208984 203.283447265625 27.00655746459961 190.0200347900391 22.24915313720703 L 190.0142669677734 22.24704170227051 C 182.4445953369141 19.47904205322266 174.5821533203125 17.36281967163086 166.645263671875 15.95737552642822 C 158.7099304199219 14.55215358734131 150.6003723144531 13.83970832824707 142.5418243408203 13.83970832824707 C 142.4953002929688 13.83970832824707 142.4487152099609 13.8397331237793 142.4020385742188 13.83978080749512 L 142.4020385742188 13.84437561035156 L 141.4019317626953 13.84437561035156 C 133.0146026611328 13.84437561035156 124.9068145751953 14.59881973266602 117.303596496582 16.0869312286377 C 109.6570434570312 17.58348655700684 102.2660369873047 19.8718204498291 95.33592987060547 22.88837623596191 L 95.31348419189453 22.89781951904297 C 88.73326110839844 25.57326507568359 82.58448791503906 29.17970848083496 77.03770446777344 33.61715316772461 C 71.4949951171875 38.05134582519531 66.62965393066406 43.25447463989258 62.57698440551758 49.08162307739258 C 58.49317932128906 55.30702209472656 55.40817260742188 62.09921264648438 53.40681838989258 69.27048492431641 C 51.40448379516602 76.44537353515625 50.52670669555664 83.85781860351562 50.79792785644531 91.30181884765625 L 50.7985954284668 91.33826446533203 C 50.7987060546875 97.75137329101562 51.43148422241211 103.6257095336914 52.67926406860352 108.7981567382812 C 53.9399299621582 114.0234832763672 55.87981796264648 118.7461547851562 58.44537353515625 122.8350448608398 L 58.45570755004883 122.8519287109375 C 63.20791625976562 130.7720947265625 70.8922119140625 137.6820220947266 81.29375457763672 143.3892211914062 C 91.98467254638672 148.7330017089844 105.4311065673828 153.6765289306641 121.2624816894531 158.0831604003906 C 133.7867126464844 161.6154937744141 144.4342651367188 164.8905944824219 155.1410369873047 168.21337890625 L 155.146484375 168.2151489257812 C 165.3628234863281 171.4502716064453 173.0670471191406 175.1971588134766 178.6994781494141 179.6699371337891 L 178.7224884033203 179.6887054443359 C 181.4847106933594 182.0194854736328 183.5841522216797 184.7408142089844 184.9622650146484 187.7771606445312 C 186.3429260253906 190.8190460205078 187.0430450439453 194.2732696533203 187.0430450439453 198.043701171875 C 187.0430450439453 202.5030364990234 186.1652679443359 206.4595947265625 184.4341583251953 209.8034820556641 C 182.6927032470703 213.1672668457031 180.0440368652344 215.9989318847656 176.5617065429688 218.2198181152344 C 173.1281585693359 220.4095916748047 168.7793731689453 222.0691528320312 163.6360473632812 223.1521606445312 C 158.5517120361328 224.2228240966797 152.5231475830078 224.7657012939453 145.7191467285156 224.7657012939453 L 145.5001525878906 224.7659301757812 C 136.0399322509766 224.7660369873047 126.5941543579102 223.5830383300781 117.4227066040039 221.249267578125 C 101.4212646484375 217.1300354003906 86.09170532226562 210.7849273681641 71.85981750488281 202.3900451660156 L 71.85226440429688 202.3854827880859 C 68.16743469238281 200.1677551269531 64.65236663818359 197.627685546875 61.38700103759766 194.8238830566406 L 40.80006408691406 234.7308044433594 C 47.86182403564453 239.6281890869141 55.33243560791016 244.0167083740234 63.01681900024414 247.7809295654297 C 71.23390960693359 251.8059844970703 79.94282531738281 255.2388000488281 88.9034423828125 257.9846801757812 C 93.82862091064453 259.2647399902344 110.4171371459961 263.4091491699219 118.6255950927734 263.4091491699219 M 276.8214721679688 220.2180023193359 L 322.2830505371094 204.9581146240234 L 322.2830505371094 114.5670394897461 L 361.2810363769531 114.5670394897461 L 361.2810363769531 80.22404479980469 L 322.2830505371094 80.22404479980469 L 322.2830505371094 20.48237609863281 L 276.8214721679688 20.48237609863281 L 276.8214721679688 80.22404479980469 L 252.4269256591797 80.22404479980469 L 252.4269256591797 114.5670394897461 L 276.8214721679688 114.5670394897461 L 276.8214721679688 220.2180023193359 M 398.8546752929688 184.7238464355469 L 505.346923828125 154.0316467285156 C 503.9186401367188 153.8958129882812 502.523193359375 153.7388916015625 501.1483764648438 153.5842590332031 C 498.7040405273438 153.3093719482422 496.395263671875 153.0497131347656 493.9860534667969 152.9079284667969 L 493.9245910644531 152.9043731689453 L 493.8640441894531 152.8932647705078 C 486.0209350585938 151.4527130126953 478.2633666992188 150.7523803710938 470.1480407714844 150.7523803710938 C 454.8080444335938 150.7523803710938 440.9774780273438 153.2395935058594 429.0407104492188 158.1450347900391 L 429.0342712402344 158.147705078125 C 417.3952026367188 162.8357696533203 408.0734558105469 169.7816925048828 401.32470703125 178.7949066162109 L 398.8546752929688 184.7238464355469 M 513.9470825195312 151.5091094970703 L 559.476806640625 138.4115600585938 C 557.8021850585938 126.8053207397461 556.4297485351562 119.7670364379883 553.7891235351562 113.9692611694336 C 552.3856201171875 110.8874893188477 550.6436157226562 108.1981506347656 548.3070678710938 105.5055999755859 C 546.0263671875 102.8777084350586 543.1406860351562 100.2068176269531 539.2254638671875 97.10015106201172 L 539.1748046875 97.05715179443359 C 535.6378173828125 93.84537506103516 531.669921875 90.99026489257812 527.3814697265625 88.57137298583984 C 523.0874633789062 86.14937591552734 518.3568115234375 84.09937286376953 513.3206176757812 82.47848510742188 C 508.2716979980469 80.85337829589844 502.7810363769531 79.61614990234375 497.0012512207031 78.80104064941406 C 491.203369140625 77.98337554931641 484.9604797363281 77.56881713867188 478.4457092285156 77.56881713867188 L 478.4398193359375 77.56881713867188 C 478.1775817871094 77.5672607421875 477.9194946289062 77.56659698486328 477.6573791503906 77.56659698486328 C 463.9942626953125 77.56659698486328 450.4451599121094 79.60715484619141 437.386474609375 83.63159942626953 C 424.6017761230469 87.57157135009766 412.4987182617188 93.34791564941406 401.3995666503906 100.8056182861328 L 415.7784423828125 130.0325469970703 C 420.4995422363281 126.8987274169922 425.19287109375 124.0763092041016 429.7439270019531 121.6348190307617 C 434.5599365234375 119.051155090332 439.376708984375 116.8081512451172 444.0602722167969 114.9680404663086 L 444.0692749023438 114.964599609375 C 453.1239318847656 111.5073776245117 463.0147094726562 109.7543716430664 473.467041015625 109.7543716430664 C 480.3661499023438 109.7543716430664 486.5086975097656 110.5647125244141 491.7241516113281 112.1630401611328 C 497.0258483886719 113.7876968383789 501.4384460449219 116.2469024658203 504.8397216796875 119.4724884033203 C 508.5408325195312 122.6742095947266 511.3365783691406 126.6829223632812 513.1493530273438 131.3873748779297 C 514.9005737304688 135.9321594238281 515.7885131835938 141.2735900878906 515.7885131835938 147.2632598876953 L 515.7885131835938 147.4810485839844 L 513.9470825195312 151.5091094970703 M 656.675048828125 267.9082641601562 L 609.21337890625 267.9082641601562 L 609.21337890625 171.9897155761719 C 629.1273803710938 169.8323822021484 639.0843505859375 154.3990478515625 635.765380859375 138.1360473632812 C 632.9442138671875 124.8601226806641 616.8471069335938 123.6985092163086 609.21337890625 124.8601531982422 L 609.21337890625 83.53871154785156 L 652.6923828125 83.53871154785156 L 652.6923828125 122.7027053833008 C 658.4179077148438 110.8572616577148 666.966064453125 100.5997085571289 677.5848388671875 92.83193206787109 C 687.0982666015625 85.89004516601562 698.36572265625 81.75093078613281 710.110595703125 80.88359832763672 C 713.2675170898438 80.80057525634766 716.426513671875 80.91136932373047 719.569580078125 81.21548461914062 L 719.569580078125 124.3622665405273 C 705.2982788085938 124.3622665405273 692.3541259765625 127.0174865722656 681.06982421875 132.6597137451172 C 670.4303588867188 137.4172668457031 661.797607421875 145.7564849853516 656.675048828125 156.2244873046875 L 656.675048828125 267.9082641601562 Z M 450.9608764648438 267.877197265625 C 430.0337219238281 267.877197265625 410.3998413085938 257.2721557617188 398.9557189941406 239.5309295654297 C 393.4793701171875 230.7358245849609 390.8241577148438 224.7615966796875 390.8241577148438 213.8089294433594 L 435.63037109375 205.8433685302734 C 435.7308044433594 213.1272583007812 438.8572692871094 220.0411529541016 444.2598266601562 224.927490234375 C 449.9022521972656 230.4039306640625 458.0338134765625 233.2250366210938 468.6543884277344 233.2250366210938 C 468.7791748046875 233.2258758544922 468.9015808105469 233.2262878417969 469.0262756347656 233.2262725830078 C 482.7080078125 233.2257080078125 495.922119140625 228.2091827392578 506.158935546875 219.1192626953125 C 512.1331787109375 213.4770355224609 514.9540405273438 208.0007019042969 514.9540405273438 203.0222625732422 L 513.294921875 191.9037017822266 L 562.0839233398438 181.9467163085938 L 562.2496948242188 211.4854888916016 C 562.2496948242188 216.6300354003906 563.079833984375 220.2808227539062 564.7391357421875 222.2722625732422 L 564.9048461914062 222.2723693847656 C 566.5645141601562 224.2637023925781 569.551513671875 225.4252624511719 573.7003784179688 225.9231567382812 L 573.7003784179688 264.2573852539062 C 569.551513671875 265.2531433105469 565.7346801757812 265.7509460449219 562.0839233398438 266.0828247070312 C 558.7648315429688 266.4148254394531 555.943603515625 266.7466125488281 553.620361328125 266.7466125488281 C 544.1611328125 266.7466125488281 537.0255126953125 264.5893859863281 532.0469360351562 260.4406127929688 C 527.068359375 256.1259460449219 524.0810546875 250.9814910888672 523.0855102539062 244.8413696289062 L 522.0899047851562 235.3822631835938 C 513.9891357421875 245.7776031494141 503.5197143554688 254.0848236083984 491.5553588867188 259.6108093261719 C 479.9389343261719 265.087158203125 467.6587219238281 267.7424926757812 455.046142578125 267.7424926757812 C 453.6797180175781 267.8326416015625 452.3182983398438 267.877197265625 450.9608764648438 267.877197265625 Z M 145.0535888671875 267.4104919433594 L 144.8875885009766 267.4104919433594 L 126.6331481933594 266.4148254394531 L 210.6034851074219 250.1517028808594 C 204.7953796386719 254.3003692626953 198.3232574462891 257.619384765625 191.0215911865234 260.1086120605469 C 176.9157104492188 265.087158203125 161.6485900878906 267.4104919433594 145.0535888671875 267.4104919433594 Z M 812.9991455078125 267.0785827636719 L 812.9987182617188 267.0785827636719 C 812.9991455078125 267.0785827636719 812.9991455078125 267.0785827636719 812.9991455078125 267.0785827636719 Z M 324.1127014160156 267.0785827636719 C 315.3174743652344 267.0785827636719 307.351806640625 265.4190368652344 300.050048828125 262.4319458007812 C 292.5823669433594 259.44482421875 286.7742614746094 254.6323699951172 282.2934875488281 247.9944915771484 C 279.1405944824219 242.3521575927734 277.9788208007812 239.0330352783203 277.9788208007812 236.8759307861328 L 366.9277038574219 216.9619293212891 L 376.38671875 254.4662628173828 C 368.6546020507812 257.7171630859375 360.729248046875 260.4881591796875 352.6560363769531 262.763916015625 C 343.5289306640625 265.5850524902344 334.0697021484375 267.0785827636719 324.1127014160156 267.0785827636719 Z M 812.9991455078125 267.0785827636719 C 797.2339477539062 267.0785827636719 782.1329345703125 264.5893859863281 767.69482421875 259.44482421875 C 753.7971801757812 254.5821533203125 741.1159057617188 246.7697143554688 730.5221557617188 236.5440368652344 L 747.44873046875 205.8433685302734 C 757.2809448242188 214.0473785400391 768.3045043945312 220.7064819335938 780.1416015625 225.5912628173828 C 790.7618408203125 229.7400360107422 801.0509033203125 231.8973693847656 811.3397216796875 231.8973693847656 C 820.4663696289062 231.8973693847656 827.9343872070312 230.2379302978516 833.2448120117188 226.9189300537109 C 838.8869018554688 223.5998229980469 841.7080688476562 218.7873687744141 841.7080688476562 212.1494903564453 C 841.7080688476562 205.5114898681641 838.38916015625 200.8649291992188 831.4191284179688 198.5415954589844 C 824.6156005859375 195.8864898681641 814.9903564453125 192.7334899902344 802.7102661132812 188.9165954589844 C 790.954833984375 185.4590454101562 779.4727172851562 181.1324920654297 768.3584594726562 175.9724884033203 C 759.2312622070312 171.4919281005859 752.26171875 166.0155944824219 747.44873046875 159.7094879150391 C 742.968505859375 153.4033813476562 740.81103515625 145.1060485839844 740.81103515625 135.1490478515625 C 740.81103515625 116.8945999145508 747.6146850585938 102.622932434082 761.3887329101562 91.67026519775391 C 777.1747436523438 80.27227020263672 796.373046875 74.59450531005859 815.8199462890625 75.57337188720703 C 829.095703125 75.57337188720703 841.5421752929688 77.73059844970703 853.324462890625 81.87926483154297 C 865.4183959960938 86.0313720703125 876.4617309570312 92.77059936523438 885.6846923828125 101.6272659301758 L 866.4341430664062 131.4981536865234 C 851.7002563476562 118.7614898681641 833.1170654296875 111.3398208618164 813.66259765625 110.4225997924805 C 806.1949462890625 110.4225997924805 799.3908081054688 111.7501525878906 793.5824584960938 114.5712661743164 C 787.9407958984375 117.3924865722656 785.1189575195312 122.3709335327148 785.1189575195312 129.5067138671875 C 785.1189575195312 136.1447143554688 787.7745971679688 140.6253814697266 793.25048828125 143.4464874267578 C 798.8931274414062 146.2675933837891 807.3563842773438 149.4207153320312 818.6406860351562 152.7397155761719 C 833.4105834960938 157.2202606201172 845.6906127929688 161.5349273681641 855.813720703125 165.68359375 C 866.2683715820312 169.9983825683594 874.0678100585938 175.3087158203125 879.2122802734375 181.9467163085938 C 884.688720703125 188.5847015380859 887.510009765625 197.3800354003906 887.510009765625 208.6644897460938 C 887.510009765625 226.9189300537109 880.7060546875 241.3564910888672 867.2640380859375 251.8113708496094 C 853.822021484375 261.9342651367188 835.7339477539062 267.0785827636719 812.9987182617188 267.0785827636719 Z M 118.6255416870117 264.4091491699219 C 110.9495697021484 264.4091491699219 96.06246948242188 260.8792114257812 88.63092803955078 258.9470520019531 C 70.21059417724609 253.3048248291016 53.94759750366211 245.1732635498047 39.51004028320312 235.0503692626953 L 61.0834846496582 193.2311553955078 C 64.58148193359375 196.33837890625 68.35915374755859 199.1160430908203 72.36792755126953 201.5287017822266 C 86.51503753662109 209.8735961914062 101.7658157348633 216.1861572265625 117.6720428466797 220.2808227539062 C 126.7676696777344 222.5953521728516 136.1152038574219 223.7659912109375 145.5001678466797 223.7659149169922 C 145.5723114013672 223.7659149169922 145.6454467773438 223.7658538818359 145.7175903320312 223.7657012939453 C 172.7672576904297 223.7657012939453 186.0430450439453 215.3023681640625 186.0430450439453 198.043701171875 C 186.0430450439453 190.7419281005859 183.3879241943359 184.9337158203125 178.0775909423828 180.4530487060547 C 172.4352569580078 175.9723815917969 164.8015899658203 172.3214874267578 154.8445892333984 169.1684875488281 C 145.2195892333984 166.1813812255859 133.9351501464844 162.6963806152344 120.9910430908203 159.0455932617188 C 104.893928527832 154.5650482177734 91.45204162597656 149.5864868164062 80.83126068115234 144.2760467529297 C 70.54237365722656 138.6339263916016 62.57693099975586 131.6640472412109 57.59826278686523 123.3664855957031 C 52.28804016113281 114.9030456542969 49.7988166809082 104.2823791503906 49.7985954284668 91.33826446533203 C 49.24604034423828 76.17304229736328 53.42159652709961 61.21104049682617 61.74715042114258 48.52337646484375 C 70.00482177734375 36.64471054077148 81.53526306152344 27.42037582397461 94.93682098388672 21.97148704528809 C 109.042594909668 15.83137512207031 124.4759292602539 12.84426403045654 141.4028167724609 12.84437561035156 C 158.096435546875 12.70778656005859 174.6788177490234 15.57448482513428 190.3577117919922 21.30781936645508 C 204.0023803710938 26.20204162597656 217.0332641601562 32.66181945800781 229.1898193359375 40.55781936645508 L 207.6163787841797 80.0537109375 C 205.6251525878906 77.73048400878906 201.1442565917969 74.74337768554688 194.1745910644531 70.92659759521484 L 194.0085906982422 70.76071166992188 C 177.41748046875 61.48793029785156 158.8955993652344 56.20415496826172 139.9093780517578 55.32737731933594 C 113.3573760986328 55.32737731933594 100.0813751220703 64.78648376464844 100.0813751220703 83.53871154785156 C 99.75804138183594 89.61248779296875 102.0540390014648 95.53359985351562 106.3874816894531 99.80181884765625 C 111.9457092285156 104.5481567382812 118.4517059326172 108.0557098388672 125.4717102050781 110.0905990600586 C 134.1010437011719 112.9117050170898 144.7218170166016 115.8988189697266 157.3340454101562 119.0519332885742 C 173.7629241943359 123.3666000366211 188.2005920410156 128.3450469970703 200.3148193359375 133.9872589111328 C 211.5119323730469 138.7944793701172 221.1610412597656 146.6055908203125 228.1942596435547 156.5563812255859 C 234.8321533203125 165.68359375 238.1511535644531 177.9638214111328 238.1511535644531 193.2311553955078 C 239.2204895019531 208.3747100830078 234.9326019287109 223.4122619628906 226.0368194580078 235.7141571044922 L 120.9910430908203 264.2573852539062 C 120.3155670166016 264.3612976074219 119.5200424194336 264.4091491699219 118.6255416870117 264.4091491699219 Z M 275.8214721679688 221.6084899902344 L 275.8214721679688 115.5670394897461 L 251.4269256591797 115.5670394897461 L 251.4269256591797 79.22404479980469 L 275.8214721679688 79.22404479980469 L 275.8214721679688 19.48237609863281 L 323.2830505371094 19.48237609863281 L 323.2830505371094 79.22404479980469 L 362.2810363769531 79.22404479980469 L 362.2810363769531 115.5670394897461 L 323.2830505371094 115.5670394897461 L 323.2830505371094 205.6772613525391 L 275.8214721679688 221.6084899902344 Z M 397.1308288574219 186.2613830566406 L 400.4493713378906 178.2957153320312 C 407.2532653808594 169.1685943603516 416.7124938964844 162.03271484375 428.6605834960938 157.2201538085938 C 440.7750549316406 152.2417144775391 454.7149353027344 149.7523803710938 470.1480407714844 149.7523803710938 C 478.1137084960938 149.7523803710938 485.9132690429688 150.4161529541016 494.0447082519531 151.9097137451172 C 499.6870422363281 152.2415924072266 504.9977111816406 153.2373809814453 511.1376037597656 153.4033813476562 L 512.1333618164062 153.0713806152344 L 514.7885131835938 147.2632598876953 C 514.7885131835938 135.6467132568359 511.4693603515625 126.5194854736328 504.1678161621094 120.2134857177734 C 497.5299377441406 113.9073791503906 487.0749206542969 110.7543716430664 473.467041015625 110.7543716430664 C 463.3442687988281 110.7543716430664 453.5532531738281 112.413818359375 444.4259338378906 115.8988189697266 C 435.1330261230469 119.5497055053711 425.5077209472656 124.6941528320312 415.3849182128906 131.498046875 L 400.1177062988281 100.4654846191406 C 422.9819030761719 84.89178466796875 450.0050048828125 76.56656646728516 477.6573486328125 76.56656646728516 C 477.9214477539062 76.56656646728516 478.1814880371094 76.56730651855469 478.4457092285156 76.56881713867188 C 504.8316040039062 76.56881713867188 525.4094848632812 83.20671081542969 539.8470458984375 96.31681823730469 C 555.1141357421875 108.4310455322266 557.2713623046875 115.8988189697266 560.5905151367188 139.1317138671875 L 512.1333618164062 153.0713806152344 L 512.1333618164062 153.4033813476562 L 511.1376953125 153.4033813476562 L 397.1308288574219 186.2613830566406 Z"
          stroke="none" fill="rgba(255,255,255,0.18)"/>
      </g>
    </g>
  </g>
</svg>
