<svg xmlns="http://www.w3.org/2000/svg" width="848" height="255.069"><defs><radialGradient id="b" cx=".511" cy="1.691" r="1.691" gradientTransform="matrix(0 -1 .431 0 -.054 1.814)" gradientUnits="objectBoundingBox"><stop offset="0" stop-color="#fff"/><stop offset=".421" stop-color="#fefbee"/><stop offset="1" stop-color="#625dff"/></radialGradient><clipPath id="a"><path fill="none" d="M0 0h848v255.069H0z"/></clipPath></defs><g clip-path="url(#a)"><g transform="translate(-19.51 -6.824)" fill="url(#b)"><path d="M776.513 255.086a127.584 127.584 0 01-43.167-7.274 97.243 97.243 0 01-35.419-21.821l16.128-29.252a120.176 120.176 0 0031.151 18.816 81.082 81.082 0 0029.727 6.009c8.7 0 15.812-1.581 20.872-4.744a15.23 15.23 0 008.064-14.073c0-6.325-3.162-10.752-9.8-12.966-6.483-2.53-15.654-5.534-27.355-9.171a235.611 235.611 0 01-32.731-12.334c-8.7-4.269-15.337-9.487-19.923-15.5-4.269-6.009-6.325-13.915-6.325-23.4 0-17.393 6.483-30.992 19.607-41.428A81.59 81.59 0 01779.2 72.614a106.624 106.624 0 0135.735 6.009 83.806 83.806 0 0130.835 18.816L827.427 125.9a82.855 82.855 0 00-50.282-20.081 43.585 43.585 0 00-19.133 3.953q-8.063 4.028-8.064 14.228c0 6.325 2.53 10.594 7.748 13.282 5.376 2.688 13.44 5.692 24.193 8.855 14.073 4.269 25.774 8.38 35.419 12.333 9.962 4.111 17.393 9.171 22.295 15.5 5.218 6.325 7.906 14.705 7.906 25.457 0 17.393-6.483 31.15-19.291 41.112-12.808 9.645-30.043 14.547-51.706 14.547zM650.807 127.008c10.752-5.376 23.086-7.906 36.684-7.906V77.99a73.517 73.517 0 00-9.013-.316 60.084 60.084 0 00-30.992 11.385 76.528 76.528 0 00-23.718 28.462V80.2H582.34v39.372c7.274-1.107 22.611 0 25.3 12.65 3.162 15.5-6.325 30.2-25.3 32.257v91.394h45.223V149.461a47.435 47.435 0 0123.244-22.453zm-386.133-16.287v101.04l45.223-15.18v-85.86h37.158V76.093H309.9V19.169h-45.226v56.924h-23.243v34.629zm73.21 140.253a194.508 194.508 0 0022.611-7.906l-9.013-35.735-84.752 18.975c0 2.055 1.107 5.218 4.111 10.594a36.107 36.107 0 0016.919 13.756 59.843 59.843 0 0022.928 4.427 91.356 91.356 0 0027.197-4.11zM186.879 68.187c6.641 3.637 10.91 6.483 12.808 8.7l20.555-37.637a178.676 178.676 0 00-37-18.342 132.663 132.663 0 00-46.642-8.064c-16.128 0-30.834 2.846-44.274 8.7A71.154 71.154 0 0060.7 46.84a69.731 69.731 0 00-11.385 40.8c0 12.334 2.372 22.453 7.432 30.518 4.744 7.906 12.333 14.547 22.137 19.923 10.12 5.06 22.928 9.8 38.265 14.073 12.333 3.479 23.086 6.8 32.257 9.645 9.487 3 16.761 6.483 22.137 10.752a20.8 20.8 0 017.59 16.761c0 16.445-12.65 24.509-38.423 24.509a107.523 107.523 0 01-26.723-3.321 166.817 166.817 0 01-43.167-17.868 72.429 72.429 0 01-10.752-7.906L39.51 224.568a165.157 165.157 0 0046.8 22.769c7.906 2.056 24.667 6.009 30.834 5.06l100.091-27.2a61.668 61.668 0 0011.543-40.479c0-14.547-3.162-26.248-9.487-34.945a62.931 62.931 0 00-26.564-21.5 245.859 245.859 0 00-40.953-14.231q-18.026-4.507-30.359-8.539a49.017 49.017 0 01-18.184-9.8 20.24 20.24 0 01-6.009-15.5c0-17.868 12.65-26.881 37.949-26.881a116.693 116.693 0 0151.547 14.705zM140.075 255.4c15.812 0 30.359-2.214 43.8-6.957a71.446 71.446 0 0018.658-9.487l-80.009 15.5 17.393.949zm243.348-84.911c6.483-8.7 15.5-15.5 26.88-20.081 11.543-4.744 24.825-7.115 39.53-7.115a124.42 124.42 0 0122.767 2.057c5.376.316 10.436 1.265 16.287 1.423l.949-.316 2.53-5.534c0-11.069-3.163-19.765-10.12-25.774-6.325-6.009-16.287-9.013-29.253-9.013a77.27 77.27 0 00-27.671 4.9 144.776 144.776 0 00-27.667 14.864l-14.548-29.568a131.24 131.24 0 0174.633-22.769c25.141 0 44.748 6.325 58.5 18.816 14.547 11.543 16.6 18.658 19.765 40.8l-46.171 13.282v.316h-.949l-108.624 31.304 3.162-7.59zm156.54 41.9c-1.581-1.9-2.372-5.376-2.372-10.278l-.158-28.145-46.488 9.487 1.581 10.594c0 4.744-2.688 9.962-8.38 15.338a53.287 53.287 0 01-35.735 13.44c-10.12 0-17.867-2.688-23.244-7.906a24.983 24.983 0 01-8.222-18.184l-42.693 7.59c0 10.436 2.53 16.128 7.748 24.509a58.979 58.979 0 0053.445 26.881 80.884 80.884 0 0034.787-7.748 78.746 78.746 0 0029.094-23.086l.949 9.013a24.334 24.334 0 008.539 14.863c4.744 3.953 11.543 6.009 20.556 6.009 2.214 0 4.9-.316 8.064-.633A75.912 75.912 0 00548.5 252.4v-36.528c-3.953-.474-6.8-1.581-8.381-3.479z"/><path d="M626.563 254.877V149.229l.102-.208a48.294 48.294 0 019.854-13.546 48.295 48.295 0 0113.86-9.372c5.367-2.68 11.252-4.713 17.494-6.042 5.81-1.237 12.069-1.894 18.618-1.955V78.904a72.838 72.838 0 00-7.964-.231 59.03 59.03 0 00-30.45 11.193 75.6 75.6 0 00-13.43 12.607 75.592 75.592 0 00-9.979 15.483l-1.9-.436V81.204H583.34v37.234c1.15-.125 2.382-.19 3.619-.19 2.2 0 4.352.198 6.397.589 2.394.457 4.576 1.17 6.485 2.12 2.215 1.1 4.065 2.522 5.499 4.226 1.62 1.924 2.723 4.224 3.278 6.835l.001.008c.806 3.95.829 7.853.067 11.605-.76 3.744-2.27 7.182-4.488 10.218-2.312 3.165-5.304 5.769-8.894 7.738-3.527 1.935-7.548 3.206-11.964 3.783v89.507h43.223m-195.01-.03c1.27 0 2.557-.043 3.826-.126l.066-.003c12.029 0 23.59-2.574 34.36-7.652l.008-.003a77.837 77.837 0 0015.725-9.679 77.828 77.828 0 0013-13.114l1.523-1.955 1.205 11.45c.453 2.772 1.369 5.369 2.721 7.717 1.352 2.347 3.193 4.54 5.474 6.517 2.27 1.89 5.066 3.333 8.312 4.29 3.334.982 7.236 1.48 11.596 1.48 1.824 0 4.011-.223 6.544-.483l1.421-.144h.01c3.883-.354 7.055-.832 10.158-1.538v-34.858c-3.635-.544-6.207-1.646-7.829-3.353h-.178l-.3-.36c-1.727-2.072-2.603-5.744-2.603-10.912l-.152-26.928-44.365 9.054 1.452 9.73v.074c0 2.566-.732 5.226-2.175 7.906-1.456 2.704-3.65 5.449-6.519 8.159l-.022.02a54.238 54.238 0 01-36.407 13.693c-10.275-.001-18.324-2.752-23.92-8.176a25.83 25.83 0 01-6.233-8.553 25.81 25.81 0 01-2.264-9.175l-40.73 7.241c.129 9.549 2.485 14.94 7.589 23.138a58.008 58.008 0 009.372 11.15 58.03 58.03 0 0024.961 13.581 57.95 57.95 0 0014.373 1.812m-291.477-.445c7.894 0 15.51-.568 22.634-1.688 7.254-1.14 14.263-2.894 20.833-5.212l.01-.004c5.156-1.758 9.852-3.934 14.234-6.603l-67.124 13 9.282.507h.131m170.613-.316c4.621 0 9.246-.349 13.744-1.036a91.544 91.544 0 0013.157-3.03l.024-.008a194.274 194.274 0 0021.703-7.534l-8.564-33.956-82.964 18.574c.278 2.034 1.563 5.086 3.906 9.282 4.23 6.252 9.606 10.62 16.438 13.352l.007.003a58.088 58.088 0 0010.744 3.225c3.8.748 7.772 1.128 11.805 1.128m465.825 0c10.665 0 20.39-1.218 28.901-3.619 4.229-1.193 8.243-2.702 11.933-4.486a61.864 61.864 0 0010.267-6.239c3.123-2.43 5.898-5.127 8.246-8.014a45.662 45.662 0 005.901-9.383c1.572-3.345 2.768-6.965 3.556-10.76.791-3.81 1.192-7.901 1.192-12.158 0-5.215-.656-9.956-1.95-14.09-1.27-4.052-3.196-7.662-5.728-10.73l-.019-.025c-4.716-6.086-11.875-11.053-21.883-15.183-9.87-4.045-21.754-8.183-35.323-12.3-10.503-3.088-18.698-6.09-24.357-8.919l-.011-.005c-5.578-2.874-8.29-7.51-8.29-14.172 0-7.177 2.899-12.266 8.617-15.125l.01-.005c5.538-2.69 12.122-4.054 19.57-4.054l.047.002a83.663 83.663 0 0127.152 5.887 83.648 83.648 0 0122.862 13.69l17.275-26.805a82.96 82.96 0 00-13.623-10.39 82.951 82.951 0 00-16.247-7.635l-.007-.002a104.317 104.317 0 00-17.17-4.444c-5.904-1-12.04-1.508-18.233-1.508l-.05-.001a80.47 80.47 0 00-28.82 3.799 80.463 80.463 0 00-22.39 11.337c-3.207 2.553-6.043 5.333-8.429 8.264a46.797 46.797 0 00-5.997 9.472c-1.589 3.351-2.796 6.97-3.588 10.756-.794 3.795-1.197 7.879-1.197 12.139 0 9.402 2.062 17.076 6.13 22.81 4.533 5.932 11.11 11.041 19.551 15.186a235.371 235.371 0 0032.58 12.275l.015.005c13.103 4.073 21.556 6.906 27.4 9.186 3.46 1.157 6.101 2.935 7.852 5.284 1.732 2.322 2.61 5.223 2.61 8.622 0 3.312-.724 6.246-2.15 8.721-1.412 2.45-3.563 4.538-6.394 6.206-2.601 1.623-5.754 2.861-9.372 3.679-3.555.803-7.599 1.21-12.02 1.21-9.78 0-19.623-1.988-30.09-6.077l-.018-.007a121.028 121.028 0 01-30.476-18.201L699.173 225.8a96.416 96.416 0 0015.807 12.166 96.41 96.41 0 0018.696 8.901l.005.002a123.227 123.227 0 0020.94 5.431c7.067 1.184 14.432 1.785 21.892 1.785m-661.62-2.544c.796 0 1.485-.042 2.049-.125l99.691-27.088a60.487 60.487 0 008.976-18.626 60.492 60.492 0 002.175-20.91l-.003-.036v-.035c0-7.158-.786-13.686-2.337-19.405-1.545-5.696-3.886-10.726-6.959-14.952l-.008-.01a61.905 61.905 0 00-26.142-21.163l-.028-.013c-11.298-5.262-25.02-10.03-40.783-14.17-11.972-2.993-22.2-5.87-30.4-8.55a50.113 50.113 0 01-9.796-4.009 50.112 50.112 0 01-8.745-5.99l-.052-.048a21.253 21.253 0 01-6.307-16.235c.003-4.584.833-8.668 2.467-12.137 1.649-3.501 4.153-6.46 7.442-8.793 3.255-2.308 7.362-4.061 12.207-5.21 4.8-1.137 10.464-1.714 16.833-1.714l.046.001c9.08.42 18.117 1.897 26.858 4.39a117.843 117.843 0 0125.132 10.442l.12.067.156.155c5.907 3.24 9.774 5.767 11.976 7.833l19.458-35.625a177.92 177.92 0 00-36.015-17.736l-.005-.002a132.019 132.019 0 00-22.259-5.991 132.017 132.017 0 00-23.044-2.017v.004h-1c-7.989 0-15.711.719-22.953 2.136-7.282 1.425-14.321 3.605-20.922 6.478l-.022.01a70.113 70.113 0 00-17.402 10.206A70.117 70.117 0 0061.527 47.4a68.642 68.642 0 00-8.73 19.221A68.643 68.643 0 0050.313 87.6v.036c0 6.107.603 11.7 1.791 16.626 1.2 4.973 3.046 9.469 5.488 13.36l.01.017c4.524 7.54 11.84 14.118 21.744 19.552 10.184 5.09 22.992 9.799 38.073 13.996 11.93 3.366 22.078 6.487 32.282 9.653l.005.002c9.74 3.084 17.086 6.657 22.457 10.922l.023.02c2.637 2.225 4.642 4.823 5.958 7.723 1.318 2.904 1.987 6.202 1.987 9.801 0 4.257-.838 8.034-2.491 11.227-1.663 3.213-4.193 5.917-7.518 8.038-3.276 2.09-7.425 3.673-12.331 4.706-4.848 1.02-10.596 1.538-17.082 1.538h-.209a108.61 108.61 0 01-26.764-3.352A167.772 167.772 0 0170.31 193.49l-.008-.004a73.642 73.642 0 01-9.932-7.17L40.8 224.248a163.296 163.296 0 0021.129 12.407c7.826 3.834 16.122 7.104 24.657 9.72 4.693 1.22 20.492 5.166 28.308 5.166m150.78-41.172l43.223-14.508v-86.14h37.159v-32.63h-37.159V20.17h-43.222v56.924H242.43v32.628h23.244v100.65m116.31-33.828l101.137-29.148a241.113 241.113 0 01-3.755-.403c-2.328-.262-4.528-.51-6.822-.644l-.061-.004-.06-.01c-7.47-1.373-14.86-2.04-22.59-2.04-14.61 0-27.782 2.369-39.15 7.04l-.006.003c-11.08 4.463-19.954 11.075-26.379 19.653l-2.314 5.553m109.668-31.649l43.244-12.44c-1.592-11.03-2.9-17.723-5.41-23.236-1.335-2.932-2.993-5.49-5.216-8.053-2.171-2.501-4.919-5.044-8.647-8.003l-.05-.043a62.078 62.078 0 00-11.23-8.079c-4.088-2.306-8.592-4.258-13.388-5.802-4.808-1.547-10.037-2.725-15.542-3.502-5.522-.778-11.468-1.173-17.673-1.173h-.006a130.118 130.118 0 00-39.103 5.775 130.11 130.11 0 00-34.243 16.334l13.66 27.764c4.484-2.975 8.942-5.655 13.265-7.975 4.59-2.462 9.182-4.6 13.646-6.354l.009-.004c8.633-3.296 18.063-4.967 28.028-4.967 6.578 0 12.436.773 17.41 2.297 5.058 1.55 9.269 3.897 12.515 6.975 3.532 3.056 6.2 6.881 7.93 11.37 1.67 4.336 2.517 9.431 2.517 15.144v.218l-1.716 3.754m135.91 110.983H582.34v-91.395c18.975-2.055 28.462-16.76 25.3-32.256-2.689-12.65-18.027-13.757-25.3-12.65V80.204h41.428v37.316a76.528 76.528 0 0123.718-28.461 60.085 60.085 0 0130.992-11.385c3.008-.08 6.018.026 9.013.316v41.112c-13.599 0-25.932 2.53-36.684 7.906a47.435 47.435 0 00-23.244 22.453v106.416zm-196.01-.03A58.982 58.982 0 01382 228.837c-5.218-8.38-7.748-14.072-7.748-24.508l42.693-7.59a24.983 24.983 0 008.222 18.184c5.377 5.218 13.125 7.906 23.244 7.906a53.29 53.29 0 0035.736-13.44c5.692-5.376 8.38-10.594 8.38-15.338l-1.581-10.594 46.488-9.487.158 28.145c0 4.902.79 8.38 2.372 10.278h.157c1.582 1.898 4.428 3.004 8.381 3.479v36.526c-3.953.949-7.59 1.423-11.068 1.74-3.163.315-5.851.632-8.065.632-9.013 0-15.812-2.056-20.556-6.009-4.743-4.111-7.59-9.013-8.538-14.863l-.949-9.013a78.747 78.747 0 01-29.094 23.085c-11.069 5.218-22.77 7.748-34.787 7.748a59.06 59.06 0 01-3.893.129zm-291.478-.445h-.158l-17.393-.949 80.009-15.495c-5.534 3.952-11.701 7.115-18.658 9.487-13.44 4.743-27.988 6.957-43.8 6.957zm636.438-.316zm-465.825 0c-8.38 0-15.97-1.581-22.928-4.428-7.115-2.846-12.65-7.431-16.919-13.756-3.004-5.376-4.111-8.539-4.111-10.594l84.753-18.975 9.013 35.736a194.504 194.504 0 01-22.611 7.906 91.355 91.355 0 01-27.197 4.11zm465.825 0c-15.022 0-29.41-2.372-43.167-7.274a97.242 97.242 0 01-35.42-21.82l16.129-29.253a120.175 120.175 0 0031.15 18.817c10.12 3.953 19.923 6.008 29.727 6.008 8.696 0 15.812-1.58 20.872-4.743 5.376-3.163 8.064-7.748 8.064-14.073s-3.163-10.752-9.804-12.966c-6.483-2.53-15.654-5.534-27.355-9.171a235.615 235.615 0 01-32.731-12.334c-8.697-4.269-15.337-9.487-19.923-15.495-4.27-6.01-6.325-13.915-6.325-23.402 0-17.394 6.483-30.992 19.607-41.428A81.59 81.59 0 01779.2 72.615c12.65 0 24.509 2.056 35.735 6.009a83.805 83.805 0 0130.834 18.816l-18.343 28.462a82.855 82.855 0 00-50.282-20.082c-7.115 0-13.598 1.265-19.133 3.954-5.375 2.688-8.064 7.431-8.064 14.23 0 6.325 2.53 10.595 7.748 13.283 5.376 2.688 13.44 5.692 24.192 8.854 14.074 4.27 25.774 8.38 35.42 12.334 9.961 4.111 17.393 9.17 22.295 15.496 5.218 6.325 7.906 14.705 7.906 25.457 0 17.394-6.483 31.15-19.29 41.112-12.809 9.645-30.044 14.547-51.707 14.547zm-661.62-2.544c-7.313 0-21.498-3.363-28.58-5.204-17.55-5.376-33.046-13.124-46.803-22.77l20.556-39.846a72.43 72.43 0 0010.752 7.906 166.819 166.819 0 0043.167 17.868 107.512 107.512 0 0026.723 3.32c25.773 0 38.423-8.064 38.423-24.509 0-6.957-2.53-12.491-7.59-16.76-5.376-4.27-12.65-7.748-22.137-10.753-9.17-2.846-19.923-6.166-32.256-9.645-15.338-4.27-28.146-9.013-38.266-14.073-9.803-5.376-17.393-12.017-22.137-19.923-5.06-8.064-7.432-18.184-7.432-30.518A69.73 69.73 0 0160.698 46.84a71.154 71.154 0 0131.624-25.3c13.44-5.85 28.146-8.696 44.274-8.696a132.662 132.662 0 0146.646 8.064 178.677 178.677 0 0137 18.342l-20.555 37.633c-1.898-2.213-6.167-5.06-12.808-8.696l-.158-.159a116.693 116.693 0 00-51.548-14.705c-25.299 0-37.949 9.013-37.949 26.88a20.24 20.24 0 006.009 15.497 49.018 49.018 0 0018.184 9.803c8.222 2.688 18.342 5.534 30.36 8.539 15.653 4.111 29.41 8.855 40.952 14.23a62.933 62.933 0 0126.565 21.505c6.325 8.697 9.487 20.398 9.487 34.945a61.668 61.668 0 01-11.543 40.479l-100.09 27.197c-.644.099-1.402.144-2.254.144zm149.782-40.781V110.72H241.43V76.093h23.244V19.169h45.222v56.924h37.159v34.628h-37.159v85.86l-45.222 15.18zm115.586-33.68l3.163-7.59c6.482-8.697 15.495-15.496 26.88-20.081 11.543-4.744 24.825-7.116 39.53-7.116 7.59 0 15.022.633 22.77 2.056 5.376.316 10.436 1.265 16.286 1.423l.95-.316 2.53-5.535c0-11.068-3.163-19.765-10.12-25.773-6.325-6.009-16.287-9.013-29.253-9.013-9.645 0-18.975 1.58-27.671 4.901-8.855 3.48-18.026 8.38-27.671 14.864l-14.548-29.569a131.246 131.246 0 0174.634-22.77c25.141 0 44.748 6.325 58.505 18.817 14.547 11.543 16.602 18.658 19.765 40.795l-46.172 13.283v.316h-.948L380.26 178.08z" fill="rgba(255,255,255,0.16)"/></g><g fill="rgba(255,255,255,0)"><path d="M773.49 254.239a133.9 133.9 0 01-45.3-7.634 102.057 102.057 0 01-37.173-22.9l16.927-30.7a126.125 126.125 0 0032.693 19.748 85.1 85.1 0 0031.2 6.306c9.127 0 16.595-1.66 21.905-4.978a15.984 15.984 0 008.463-14.77c0-6.638-3.319-11.285-10.289-13.608-6.8-2.655-16.429-5.808-28.709-9.625a247.276 247.276 0 01-34.352-12.944c-9.127-4.481-16.1-9.957-20.91-16.263-4.48-6.306-6.638-14.6-6.638-24.56 0-18.255 6.8-32.526 20.578-43.479a85.629 85.629 0 0154.431-16.1 111.9 111.9 0 0137.5 6.306 87.955 87.955 0 0132.36 19.748l-19.252 29.874a86.957 86.957 0 00-52.772-21.076 45.743 45.743 0 00-20.08 4.149q-8.463 4.232-8.464 14.935c0 6.638 2.656 11.119 8.132 13.94 5.643 2.821 14.106 5.974 25.39 9.293 14.77 4.481 27.05 8.8 37.173 12.944 10.455 4.315 18.254 9.625 23.4 16.263 5.476 6.638 8.3 15.433 8.3 26.718 0 18.254-6.8 32.692-20.246 43.147-13.442 10.123-31.53 15.267-54.265 15.267zM641.56 119.82c11.284-5.642 24.228-8.3 38.5-8.3V68.375a77.157 77.157 0 00-9.459-.332 63.059 63.059 0 00-32.526 11.948 80.317 80.317 0 00-24.893 29.869V70.699h-43.479v41.321c7.634-1.162 23.731 0 26.552 13.276 3.319 16.263-6.638 31.7-26.552 33.854v95.919h47.462V143.385a49.784 49.784 0 0124.395-23.565zm-405.248-17.093v106.041l47.461-15.931v-90.11h39V66.384h-39V6.642h-47.461v59.742h-24.395v36.343zm76.835 147.2a204.142 204.142 0 0023.731-8.3l-9.459-37.5-88.949 19.914c0 2.157 1.162 5.476 4.315 11.119a37.9 37.9 0 0017.757 14.437 62.805 62.805 0 0024.063 4.647 95.879 95.879 0 0028.541-4.32zM154.665 58.087c6.97 3.817 11.451 6.8 13.442 9.127l21.573-39.5a187.522 187.522 0 00-38.832-19.25A139.231 139.231 0 00101.89.004c-16.927 0-32.36 2.987-46.466 9.127a74.677 74.677 0 00-33.19 26.552A73.183 73.183 0 0010.29 78.498c0 12.944 2.489 23.565 7.8 32.028 4.979 8.3 12.944 15.267 23.233 20.91 10.621 5.31 24.063 10.289 40.16 14.77 12.944 3.651 24.229 7.136 33.854 10.123 9.957 3.153 17.591 6.8 23.233 11.285a21.833 21.833 0 017.965 17.591c0 17.259-13.276 25.722-40.325 25.722a112.847 112.847 0 01-28.046-3.485 175.075 175.075 0 01-45.3-18.752 76.015 76.015 0 01-11.285-8.3L0 222.21a173.332 173.332 0 0049.121 23.9c8.3 2.157 25.888 6.306 32.36 5.31l105.046-28.543a64.72 64.72 0 0012.114-42.483c0-15.267-3.319-27.548-9.957-36.675a66.047 66.047 0 00-27.879-22.569c-12.114-5.642-26.552-10.621-42.981-14.935q-18.918-4.73-31.862-8.961A51.443 51.443 0 0166.877 86.96a21.242 21.242 0 01-6.306-16.263c0-18.752 13.276-28.211 39.828-28.211a122.47 122.47 0 0154.1 15.433zM105.544 254.57c16.595 0 31.862-2.323 45.968-7.3a74.982 74.982 0 0019.582-9.957l-83.97 16.263 18.254 1zm255.4-89.115c6.8-9.127 16.263-16.263 28.211-21.076 12.114-4.978 26.054-7.468 41.487-7.468a130.58 130.58 0 0123.9 2.157c5.642.332 10.953 1.328 17.093 1.494l1-.332 2.655-5.808c0-11.617-3.319-20.744-10.621-27.05-6.638-6.306-17.093-9.459-30.7-9.459a81.1 81.1 0 00-29.041 5.144 151.942 151.942 0 00-29.041 15.6L360.62 87.624a137.737 137.737 0 0178.328-23.9c26.386 0 46.964 6.638 61.4 19.748 15.267 12.114 17.424 19.582 20.743 42.815l-48.457 13.94v.332h-1l-114.013 32.862 3.319-7.966zm164.29 43.977c-1.659-1.991-2.489-5.642-2.489-10.787l-.166-29.539-48.794 9.954 1.659 11.119c0 4.978-2.821 10.455-8.8 16.1a55.925 55.925 0 01-37.5 14.106c-10.621 0-18.752-2.821-24.395-8.3a26.22 26.22 0 01-8.629-19.084l-44.806 7.966c0 10.953 2.655 16.927 8.132 25.722a61.9 61.9 0 0056.09 28.211 84.888 84.888 0 0036.509-8.132 82.644 82.644 0 0030.535-24.229l1 9.459a25.538 25.538 0 008.961 15.6c4.979 4.149 12.114 6.306 21.574 6.306 2.323 0 5.144-.332 8.464-.664a79.67 79.67 0 0011.616-1.825v-38.332c-4.149-.5-7.136-1.659-8.8-3.651z"/><path d="M616.165 254.068V143.153l.102-.208a50.637 50.637 0 0110.332-14.204 50.636 50.636 0 0114.533-9.825c5.628-2.812 11.801-4.945 18.35-6.339 6.108-1.3 12.69-1.99 19.578-2.05V69.289a76.517 76.517 0 00-8.409-.246 62.001 62.001 0 00-31.986 11.756 79.39 79.39 0 00-14.103 13.24 79.385 79.385 0 00-10.48 16.259l-1.9-.435V71.699h-41.479v39.182a35.408 35.408 0 013.848-.205c2.306 0 4.561.207 6.704.617 2.508.479 4.794 1.226 6.794 2.22 2.318 1.152 4.254 2.64 5.755 4.424 1.695 2.013 2.849 4.419 3.43 7.151l.001.008c.845 4.138.868 8.23.07 12.16-.797 3.922-2.378 7.524-4.701 10.704-2.422 3.317-5.557 6.044-9.318 8.107-3.708 2.034-7.938 3.369-12.583 3.97v94.031h45.462m-204.714-.03a61.33 61.33 0 004.02-.133l.065-.003c12.632 0 24.772-2.703 36.083-8.036l.007-.003a81.732 81.732 0 0016.514-10.164 81.73 81.73 0 0013.651-13.771l1.524-1.956 1.252 11.898c.476 2.915 1.44 5.646 2.862 8.116 1.42 2.467 3.357 4.772 5.753 6.85 2.388 1.989 5.33 3.508 8.744 4.514 3.504 1.033 7.603 1.557 12.184 1.557 1.917 0 4.214-.236 6.873-.508l1.491-.151.01-.001c4.094-.372 7.435-.877 10.706-1.623v-36.666c-3.836-.569-6.545-1.727-8.244-3.526h-.185l-.3-.36c-1.805-2.166-2.72-6.009-2.721-11.42l-.16-28.322-46.666 9.524 1.53 10.254v.074c0 2.684-.766 5.468-2.277 8.274-1.525 2.833-3.824 5.71-6.831 8.55l-.023.021a56.874 56.874 0 01-38.175 14.358c-5.373 0-10.211-.723-14.381-2.149-4.17-1.425-7.767-3.584-10.69-6.418a27.062 27.062 0 01-6.531-8.962 27.038 27.038 0 01-2.375-9.666l-42.842 7.616c.129 10.058 2.602 15.726 7.97 24.348a60.926 60.926 0 009.846 11.716 60.948 60.948 0 0026.219 14.264 60.867 60.867 0 0015.097 1.903m-305.907-.467c8.287 0 16.282-.596 23.762-1.771 7.616-1.198 14.975-3.039 21.873-5.473l.01-.004c5.507-1.877 10.513-4.209 15.182-7.077l-71.11 13.772 10.145.553h.138m179.059-.331c4.853 0 9.708-.366 14.431-1.088a96.146 96.146 0 0013.817-3.183l.024-.007a203.91 203.91 0 0022.821-7.925l-9.01-35.725-87.162 19.513c.28 2.143 1.633 5.366 4.112 9.806 4.445 6.57 10.096 11.162 17.275 14.033l.008.003a61.002 61.002 0 0011.285 3.388 64.332 64.332 0 0012.399 1.185m488.886 0c11.198 0 21.408-1.279 30.346-3.8 4.44-1.253 8.656-2.838 12.531-4.712a64.97 64.97 0 0010.78-6.55c3.283-2.554 6.199-5.387 8.667-8.422a47.977 47.977 0 006.2-9.857c1.65-3.515 2.907-7.318 3.735-11.304.83-4.003 1.252-8.299 1.252-12.77 0-5.478-.69-10.458-2.05-14.802-1.333-4.259-3.358-8.054-6.02-11.279l-.018-.024c-4.956-6.394-12.476-11.612-22.987-15.95-10.361-4.246-22.835-8.59-37.078-12.91-11.02-3.242-19.617-6.39-25.554-9.358l-.01-.006c-5.837-3.006-8.674-7.857-8.674-14.828 0-7.512 3.033-12.838 9.016-15.83l.01-.005c5.806-2.82 12.709-4.25 20.518-4.25l.047.002a87.758 87.758 0 0128.48 6.175 87.747 87.747 0 0124.023 14.396l18.183-28.214a87.11 87.11 0 00-14.336-10.938 87.105 87.105 0 00-17.06-8.018l-.008-.003a109.53 109.53 0 00-18.027-4.666c-6.2-1.05-12.641-1.583-19.145-1.583h-.05a84.5 84.5 0 00-30.264 3.989 84.507 84.507 0 00-23.515 11.907c-3.368 2.68-6.347 5.6-8.853 8.68a49.158 49.158 0 00-6.3 9.95c-1.67 3.522-2.937 7.323-3.77 11.3-.834 3.986-1.257 8.276-1.257 12.75 0 9.88 2.169 17.944 6.445 23.97 4.76 6.231 11.67 11.598 20.534 15.951a247.068 247.068 0 0034.202 12.887l.015.005c13.75 4.274 22.621 7.247 28.753 9.64 3.622 1.21 6.388 3.07 8.22 5.528 1.81 2.429 2.728 5.464 2.728 9.02 0 3.467-.757 6.538-2.25 9.128-1.476 2.563-3.729 4.749-6.693 6.495-2.725 1.701-6.029 2.998-9.821 3.855-3.727.842-7.967 1.27-12.604 1.27-5.14 0-10.414-.545-15.675-1.618-5.152-1.051-10.497-2.652-15.887-4.757l-.018-.007a126.975 126.975 0 01-32.018-19.133l-15.973 28.97a101.257 101.257 0 0016.625 12.801 101.235 101.235 0 0019.631 9.347l.005.002a129.385 129.385 0 0021.985 5.702c7.42 1.243 15.152 1.874 22.984 1.874m-694.373-2.67c.838 0 1.564-.044 2.158-.132l104.648-28.435a63.53 63.53 0 009.437-19.578 63.534 63.534 0 002.285-21.962l-.003-.07c0-7.517-.826-14.374-2.454-20.38-1.623-5.983-4.083-11.268-7.312-15.708l-.007-.01a65.018 65.018 0 00-27.458-22.228l-.027-.012c-11.86-5.524-26.265-10.529-42.81-14.874-12.565-3.141-23.299-6.16-31.905-8.973a52.542 52.542 0 01-10.271-4.204 52.54 52.54 0 01-9.169-6.28l-.027-.024-.025-.025a22.254 22.254 0 01-6.605-17.001c.003-4.805.873-9.084 2.585-12.72 1.726-3.666 4.349-6.764 7.794-9.208 3.41-2.42 7.715-4.256 12.794-5.46 5.034-1.193 10.974-1.798 17.655-1.798l.046.001c9.526.44 19.006 1.99 28.176 4.606a123.627 123.627 0 0126.365 10.954l.121.067.163.163c6.242 3.424 10.312 6.087 12.612 8.26l20.475-37.484A186.763 186.763 0 00150.51 9.409l-.006-.002a138.606 138.606 0 00-23.369-6.29A138.611 138.611 0 00102.892 1v.004h-1c-8.387 0-16.495.755-24.098 2.243-7.647 1.496-15.038 3.785-21.968 6.801l-.023.01a73.637 73.637 0 00-18.275 10.72 73.637 73.637 0 00-14.461 15.464 72.086 72.086 0 00-9.17 20.188 72.09 72.09 0 00-2.61 22.032l.002.036c0 6.413.632 12.288 1.88 17.46 1.26 5.225 3.2 9.948 5.766 14.037l.01.017c4.753 7.92 12.437 14.83 22.839 20.537 10.69 5.344 24.137 10.288 39.968 14.694 12.525 3.532 23.172 6.808 33.879 10.13l.005.002c10.217 3.235 17.921 6.982 23.553 11.455l.023.019c2.763 2.33 4.862 5.052 6.24 8.088 1.38 3.042 2.081 6.496 2.081 10.267 0 4.459-.878 8.416-2.609 11.76-1.741 3.363-4.39 6.195-7.872 8.416-3.434 2.19-7.783 3.85-12.926 4.932-5.084 1.07-11.113 1.614-17.917 1.614h-.219c-9.46 0-18.906-1.183-28.077-3.517A176.032 176.032 0 0132.35 189.55l-.008-.005a77.235 77.235 0 01-10.465-7.561L1.29 221.89a171.469 171.469 0 0022.217 13.05c8.217 4.025 16.926 7.458 25.886 10.204 4.926 1.28 21.514 5.424 29.723 5.424m158.195-43.191l45.462-15.26v-90.391h38.998V67.384h-38.998V7.642h-45.462v59.742h-24.394v34.343h24.394v105.651m122.034-35.494l106.492-30.692a243.953 243.953 0 01-4.199-.448c-2.444-.275-4.753-.534-7.162-.676l-.061-.004-.061-.01c-7.843-1.441-15.6-2.142-23.716-2.142-15.34 0-29.17 2.488-41.107 7.393l-.007.003c-11.639 4.688-20.96 11.634-27.71 20.647l-2.47 5.929m115.093-33.215l45.53-13.097c-1.675-11.607-3.047-18.645-5.688-24.443-1.403-3.082-3.145-5.77-5.482-8.463-2.28-2.628-5.166-5.3-9.082-8.406l-.05-.043a65.2 65.2 0 00-11.794-8.486c-4.294-2.422-9.024-4.472-14.06-6.093-5.05-1.625-10.54-2.862-16.32-3.677-5.798-.818-12.04-1.232-18.555-1.232h-.006c-.262-.002-.52-.002-.783-.002a136.61 136.61 0 00-40.27 6.065 136.605 136.605 0 00-35.987 17.174l14.378 29.227c4.722-3.134 9.415-5.957 13.966-8.398 4.816-2.584 9.633-4.827 14.316-6.667l.01-.003c9.054-3.458 18.945-5.21 29.397-5.21 6.9 0 13.042.81 18.257 2.408 5.302 1.625 9.714 4.084 13.116 7.31 3.7 3.201 6.497 7.21 8.31 11.914 1.75 4.545 2.639 9.887 2.639 15.876v.218l-1.842 4.028m142.728 116.4h-47.462v-95.92c19.914-2.157 29.871-17.59 26.552-33.853-2.82-13.276-18.918-14.437-26.552-13.276V70.7h43.48v39.164a80.315 80.315 0 0124.892-29.871A63.059 63.059 0 01670.6 68.044a77.156 77.156 0 019.459.331v43.147c-14.272 0-27.216 2.655-38.5 8.298a49.784 49.784 0 00-24.395 23.564v111.684zm-205.714-.032a61.902 61.902 0 01-52.005-28.346c-5.477-8.795-8.132-14.77-8.132-25.722l44.806-7.966a26.22 26.22 0 008.63 19.084c5.642 5.477 13.774 8.298 24.394 8.298l.372.001a55.93 55.93 0 0037.133-14.107c5.974-5.642 8.795-11.118 8.795-16.097l-1.66-11.118 48.79-9.957.166 29.538c0 5.145.83 8.796 2.49 10.787h.165c1.66 1.992 4.647 3.153 8.795 3.651v38.334c-4.148.996-7.965 1.494-11.616 1.826-3.32.332-6.14.664-8.464.664-9.459 0-16.594-2.158-21.573-6.306-4.979-4.315-7.966-9.46-8.961-15.6l-.996-9.459a82.643 82.643 0 01-30.535 24.229c-11.616 5.476-23.896 8.131-36.509 8.131-1.366.09-2.728.135-4.085.135zm-305.907-.467h-.166l-18.255-.995 83.97-16.263c-5.808 4.148-12.28 7.467-19.581 9.957-14.106 4.978-29.373 7.301-45.968 7.301zm667.945-.331zm-488.886 0c-8.796 0-16.761-1.66-24.063-4.647-7.468-2.987-13.276-7.8-17.757-14.438-3.152-5.642-4.314-8.961-4.314-11.118l88.949-19.914 9.459 37.504a204.114 204.114 0 01-23.731 8.298 95.879 95.879 0 01-28.543 4.315zm488.886 0c-15.765 0-30.866-2.49-45.304-7.634a102.057 102.057 0 01-37.173-22.901l16.927-30.7a126.127 126.127 0 0032.693 19.747c10.62 4.149 20.909 6.306 31.198 6.306 9.126 0 16.594-1.66 21.905-4.978 5.642-3.32 8.463-8.132 8.463-14.77s-3.319-11.284-10.289-13.607c-6.803-2.656-16.429-5.809-28.709-9.625a247.264 247.264 0 01-34.352-12.945c-9.127-4.48-16.096-9.956-20.91-16.263-4.48-6.306-6.637-14.603-6.637-24.56 0-18.254 6.804-32.526 20.578-43.479a85.628 85.628 0 0154.43-16.097c13.277 0 25.723 2.158 37.505 6.306a87.955 87.955 0 0132.36 19.748l-19.25 29.871a86.956 86.956 0 00-52.771-21.075c-7.468 0-14.272 1.327-20.08 4.148-5.642 2.821-8.464 7.8-8.464 14.936 0 6.638 2.656 11.118 8.131 13.94 5.643 2.82 14.106 5.974 25.39 9.293 14.77 4.48 27.05 8.795 37.174 12.944 10.454 4.314 18.254 9.625 23.398 16.263 5.477 6.638 8.298 15.433 8.298 26.717 0 18.255-6.804 32.692-20.246 43.147-13.442 10.123-31.53 15.268-54.265 15.268zm-694.373-2.67c-7.676 0-22.564-3.53-29.995-5.462C30.7 240.465 14.438 232.333 0 222.21l21.573-41.819a76.013 76.013 0 0011.285 8.298 175.077 175.077 0 0045.304 18.752 112.836 112.836 0 0028.046 3.485c27.05 0 40.325-8.464 40.325-25.722 0-7.302-2.655-13.11-7.965-17.591-5.643-4.48-13.276-8.132-23.233-11.285-9.625-2.987-20.91-6.472-33.854-10.122-16.097-4.481-29.539-9.46-40.16-14.77-10.289-5.642-18.254-12.612-23.233-20.91-5.31-8.463-7.8-19.084-7.8-32.028a73.184 73.184 0 0111.95-42.815A74.676 74.676 0 0155.426 9.131C69.533 2.991 84.966.004 101.893.004a139.23 139.23 0 0148.955 8.464 187.521 187.521 0 0138.832 19.25l-21.574 39.496c-1.99-2.324-6.472-5.31-13.441-9.127l-.166-.166a122.468 122.468 0 00-54.1-15.434c-26.552 0-39.828 9.46-39.828 28.212a21.242 21.242 0 006.306 16.263A51.444 51.444 0 0085.962 97.25c8.629 2.82 19.25 5.808 31.862 8.96 16.429 4.316 30.867 9.294 42.98 14.936a66.048 66.048 0 0127.88 22.57c6.638 9.127 9.957 21.407 9.957 36.674a64.72 64.72 0 01-12.114 42.483L81.48 251.417c-.675.104-1.471.152-2.365.152zm157.195-42.8V102.726h-24.394V66.384h24.394V6.642h47.462v59.742h38.998v36.343h-38.998v90.11l-47.462 15.931zm121.31-35.348l3.318-7.965c6.804-9.127 16.263-16.263 28.212-21.076 12.114-4.978 26.054-7.468 41.487-7.468 7.966 0 15.765.664 23.897 2.158 5.642.332 10.953 1.327 17.093 1.493l.995-.332 2.656-5.808c0-11.616-3.32-20.744-10.621-27.05-6.638-6.306-17.093-9.459-30.701-9.459-10.123 0-19.914 1.66-29.041 5.145-9.293 3.65-18.918 8.795-29.041 15.599l-15.267-31.033a137.745 137.745 0 0178.328-23.896c26.386 0 46.963 6.638 61.401 19.748 15.267 12.114 17.424 19.582 20.744 42.815l-48.458 13.94v.331h-.995L357.62 173.421z" fill="rgba(255,255,255,0.18)"/></g></g></svg>