<svg xmlns="http://www.w3.org/2000/svg" xmlns:xlink="http://www.w3.org/1999/xlink" width="124" height="96.517" viewBox="0 0 124 96.517">
  <defs>
    <filter id="vk" x="0" y="0" width="124" height="96.517" filterUnits="userSpaceOnUse">
      <feOffset dy="3" input="SourceAlpha"/>
      <feGaussianBlur stdDeviation="10" result="blur"/>
      <feFlood flood-color="#1e88e5" flood-opacity="0.6"/>
      <feComposite operator="in" in2="blur"/>
      <feComposite in="SourceGraphic"/>
    </filter>
  </defs>
  <g transform="matrix(1, 0, 0, 1, 0, 0)" filter="url(#vk)">
    <path id="vk-2" data-name="vk" d="M31.315,44.093h3.824a3.224,3.224,0,0,0,1.744-.764,2.786,2.786,0,0,0,.524-1.68s-.076-5.132,2.308-5.888c2.348-.744,5.364,4.96,8.561,7.157a6.055,6.055,0,0,0,4.252,1.3l8.549-.12s4.472-.276,2.352-3.792c-.172-.288-1.236-2.6-6.356-7.353-5.36-4.976-4.64-4.168,1.816-12.773,3.932-5.24,5.5-8.441,5.012-9.809-.468-1.3-3.36-.96-3.36-.96l-9.617.056a2.2,2.2,0,0,0-1.244.22,2.709,2.709,0,0,0-.848,1.032,55.707,55.707,0,0,1-3.556,7.5c-4.284,7.277-6,7.661-6.7,7.209-1.628-1.052-1.22-4.232-1.22-6.488,0-7.053,1.068-9.993-2.084-10.753a16.508,16.508,0,0,0-4.492-.448c-3.432-.036-6.34.012-7.985.816-1.1.536-1.94,1.732-1.424,1.8a4.313,4.313,0,0,1,2.84,1.428c.988,1.34.952,4.356.952,4.356s.568,8.3-1.324,9.333c-1.3.708-3.08-.736-6.9-7.341A61.565,61.565,0,0,1,13.5,11.01a2.841,2.841,0,0,0-.792-1.068,3.988,3.988,0,0,0-1.48-.6L2.085,9.4s-1.372.04-1.876.636c-.448.532-.036,1.628-.036,1.628S7.333,28.415,15.438,36.86c7.437,7.741,15.877,7.233,15.877,7.233Z" transform="translate(30 19.27)" fill="#1e88e5"/>
  </g>
</svg>
