<svg xmlns="http://www.w3.org/2000/svg" xmlns:xlink="http://www.w3.org/1999/xlink" width="296" height="113.617" viewBox="0 0 296 113.617">
  <defs>
    <linearGradient id="linear-gradient" x1="0.5" x2="1" y2="1.56" gradientUnits="objectBoundingBox">
      <stop offset="0" stop-color="#5eb9ff"/>
      <stop offset="0.476" stop-color="#6b38d3"/>
      <stop offset="1" stop-color="#f351ff"/>
    </linearGradient>
  </defs>
  <g id="Сгруппировать_8393" data-name="Сгруппировать 8393" transform="translate(-280 -74)">
    <path id="Объединение_9" data-name="Объединение 9" d="M95.233,113.4,62.646,89.414a1.117,1.117,0,0,1-.367-.5l-5.6-15.881a1.106,1.106,0,0,1,.428-1.284l21.749-14.1a1.078,1.078,0,0,0-.659-1.976L52.363,56.824a1.084,1.084,0,0,1-1.088-.758L46.2,40.447a1.088,1.088,0,0,1,0-.66L58.656.743a1.072,1.072,0,0,1,2.041,0L73.778,41.535a1.1,1.1,0,0,0,1.055.759h43.6a1.088,1.088,0,0,1,.628,1.976L83.9,69.642a1.084,1.084,0,0,0-.395,1.186L96.88,112.214a1.07,1.07,0,0,1-1.02,1.4h-.015A1,1,0,0,1,95.233,113.4Zm-72.463-2.2L28.9,92.181a1.036,1.036,0,0,1,.4-.526l13.183-9.393a1.085,1.085,0,0,1,1.251,0l10.313,7.249v.033a1.1,1.1,0,0,1,.458.867,1.079,1.079,0,0,1-.425.877L24.42,112.381a1.07,1.07,0,0,1-1.649-1.186ZM49.694,81.536l-7.779-5.669a1.088,1.088,0,0,0-1.251,0l-7.808,5.669a1.09,1.09,0,0,1-1.651-1.186l2.968-9.193a1.09,1.09,0,0,0-.362-1.189L26,64.3a1.086,1.086,0,0,1,.659-1.976h9.622a.991.991,0,0,0,.986-.727l2.967-9.16h.032a1.073,1.073,0,0,1,2.042,0l2.966,9.16a1.094,1.094,0,0,0,1.023.759h9.654A1.078,1.078,0,0,1,56.58,64.3L48.77,69.968a1.1,1.1,0,0,0-.4,1.189l2.966,9.193a1.05,1.05,0,0,1-1.013,1.389A1.1,1.1,0,0,1,49.694,81.536ZM17.171,56.3h-.032a1.082,1.082,0,0,1-.628-.2L.463,44.236a1.087,1.087,0,0,1,.66-1.976H37.534a1.1,1.1,0,0,1,1.022,1.45l-4.12,11.862a1.1,1.1,0,0,1-1.022.727Z" transform="translate(279.999 74)" fill="url(#linear-gradient)"/>
    <path id="Контур_4" data-name="Контур 4" d="M193.095,63.322a26.587,26.587,0,0,1-9-1.516,20.265,20.265,0,0,1-7.381-4.547l3.361-6.1a25.042,25.042,0,0,0,6.491,3.921,16.9,16.9,0,0,0,6.195,1.252,8.255,8.255,0,0,0,4.35-.989,3.174,3.174,0,0,0,1.681-2.933,2.662,2.662,0,0,0-2.043-2.7c-1.351-.527-3.262-1.153-5.7-1.911a49.1,49.1,0,0,1-6.821-2.57A11.462,11.462,0,0,1,180.079,42a8.276,8.276,0,0,1-1.318-4.877,10.412,10.412,0,0,1,4.086-8.633,17,17,0,0,1,10.808-3.2,22.22,22.22,0,0,1,7.447,1.252,17.464,17.464,0,0,1,6.425,3.921L203.7,36.4a17.266,17.266,0,0,0-10.478-4.185,9.083,9.083,0,0,0-3.987.824,3.03,3.03,0,0,0-1.681,2.966,2.837,2.837,0,0,0,1.615,2.768,32.177,32.177,0,0,0,5.042,1.845c2.933.89,5.371,1.746,7.381,2.57a11,11,0,0,1,4.646,3.229,8.044,8.044,0,0,1,1.648,5.305,10.284,10.284,0,0,1-4.02,8.567c-2.669,2.01-6.261,3.031-10.775,3.031Zm-26.2-26.69a16.918,16.918,0,0,1,7.645-1.648V26.416a15.322,15.322,0,0,0-1.878-.066,12.521,12.521,0,0,0-6.458,2.372,15.948,15.948,0,0,0-4.943,5.931V26.878h-8.633v8.2c1.516-.231,4.712,0,5.272,2.636.659,3.229-1.318,6.294-5.272,6.722V63.486h9.424V41.31A9.885,9.885,0,0,1,166.9,36.631ZM86.432,33.237V54.293l9.424-3.163V33.237H103.6V26.021H95.856V14.159H86.432V26.021H81.588v7.216Zm15.256,29.228a40.535,40.535,0,0,0,4.712-1.648l-1.878-7.447L86.861,57.325a5.254,5.254,0,0,0,.857,2.208A7.524,7.524,0,0,0,91.243,62.4a12.471,12.471,0,0,0,4.778.923A19.038,19.038,0,0,0,101.689,62.465ZM70.22,24.374a10.671,10.671,0,0,1,2.669,1.812l4.284-7.842a37.236,37.236,0,0,0-7.711-3.822,27.646,27.646,0,0,0-9.721-1.68,22.825,22.825,0,0,0-9.226,1.812,14.828,14.828,0,0,0-6.59,5.272,14.531,14.531,0,0,0-2.372,8.5,11.74,11.74,0,0,0,1.549,6.36,11.877,11.877,0,0,0,4.613,4.152,45.175,45.175,0,0,0,7.974,2.933c2.57.725,4.811,1.417,6.722,2.01a14.324,14.324,0,0,1,4.613,2.241,4.335,4.335,0,0,1,1.582,3.493c0,3.427-2.636,5.107-8.007,5.107a22.406,22.406,0,0,1-5.569-.692,34.763,34.763,0,0,1-9-3.723,15.094,15.094,0,0,1-2.241-1.648l-4.284,8.3a34.417,34.417,0,0,0,9.754,4.745c1.648.428,5.14,1.252,6.425,1.054l20.858-5.668a12.851,12.851,0,0,0,2.405-8.435,12.147,12.147,0,0,0-1.977-7.282,13.115,13.115,0,0,0-5.536-4.481,51.234,51.234,0,0,0-8.534-2.966q-3.756-.939-6.327-1.779a10.214,10.214,0,0,1-3.789-2.043,4.218,4.218,0,0,1-1.252-3.229c0-3.723,2.636-5.6,7.908-5.6a24.318,24.318,0,0,1,10.742,3.064ZM60.467,63.388a27.2,27.2,0,0,0,9.127-1.45,14.888,14.888,0,0,0,3.888-1.977L56.809,63.19l3.625.2Zm50.712-17.695a12.789,12.789,0,0,1,5.6-4.185,21.6,21.6,0,0,1,8.238-1.483,25.928,25.928,0,0,1,4.745.428c1.12.066,2.175.264,3.394.3l.2-.066.527-1.153a6.7,6.7,0,0,0-2.109-5.371c-1.318-1.252-3.394-1.878-6.1-1.878a16.1,16.1,0,0,0-5.766,1.021,30.17,30.17,0,0,0-5.766,3.1l-3.031-6.162a27.349,27.349,0,0,1,15.553-4.745c5.239,0,9.325,1.318,12.192,3.921,3.031,2.405,3.46,3.888,4.119,8.5l-9.622,2.768v.066h-.2L110.52,47.274l.659-1.582ZM143.8,54.425a3.463,3.463,0,0,1-.494-2.142l-.033-5.865-9.688,1.977.329,2.208a4.623,4.623,0,0,1-1.746,3.2,11.1,11.1,0,0,1-7.447,2.8,6.683,6.683,0,0,1-4.844-1.648,5.206,5.206,0,0,1-1.714-3.789l-8.9,1.582a8.42,8.42,0,0,0,1.615,5.107,12.291,12.291,0,0,0,11.137,5.6,16.856,16.856,0,0,0,7.249-1.615,16.41,16.41,0,0,0,6.063-4.811l.2,1.878a5.071,5.071,0,0,0,1.779,3.1,6.511,6.511,0,0,0,4.284,1.252c.461,0,1.021-.066,1.681-.132a15.822,15.822,0,0,0,2.307-.362V55.15a2.615,2.615,0,0,1-1.746-.725Z" transform="translate(368.11 100.978)" fill="#fff"/>
  </g>
</svg>
